<?xml version="1.0" encoding="utf-8"?>
<!-- Generator: Adobe Illustrator 23.1.0, SVG Export Plug-In . SVG Version: 6.00 Build 0)  -->
<svg version="1.1" id="f71115d1-abc3-47ac-8361-b6e087de44cd"
	 xmlns="http://www.w3.org/2000/svg" xmlns:xlink="http://www.w3.org/1999/xlink" x="0px" y="0px" viewBox="0 0 719.2 739.8"
	 style="enable-background:new 0 0 719.2 739.8;" xml:space="preserve">
<style type="text/css">
	.st0{fill:#E6E6E6;}
	.st1{fill:#6C63FF;}
	.st2{fill:#FFFFFF;}
	.st3{fill:#9F616A;}
	.st4{fill:#2F2E41;}
	.st5{fill:#3F3D56;}
	.st6{fill:#4600FF;}
	.st7{fill:#76C81B;}
</style>
<path class="st0" d="M-726.7,1125.7c12.1,28.8-1.7,87.8-1.7,87.8s-51.7-31.5-63.8-60.3c-12.1-28.8-7.3-58.4,10.8-66
	C-763.3,1079.6-738.8,1096.8-726.7,1125.7z"/>
<ellipse class="st1" cx="-414.6" cy="727.2" rx="16.8" ry="16.6"/>
<ellipse class="st1" cx="-414.6" cy="617.2" rx="16.8" ry="16.6"/>
<ellipse class="st1" cx="-414.6" cy="507.2" rx="16.8" ry="16.6"/>
<path class="st0" d="M-353.5,474.4c-2.8,0-5,2.2-5,5V535c0,2.8,2.3,5,5,5h268.8c2.8,0,5-2.2,5-5v-55.6c0-2.8-2.3-5-5-5L-353.5,474.4
	z"/>
<path class="st2" d="M-351.7,478.3c-1.6,0-2.9,1.3-2.9,2.9v52c0,1.6,1.3,2.9,2.9,2.9h265.2c1.6,0,2.9-1.3,2.9-2.9v-52
	c0-1.6-1.3-2.9-2.9-2.9H-351.7z"/>
<path class="st0" d="M-103.2,521.8c2.6,0,4.8-2.1,4.8-4.7c0-2.6-2.1-4.7-4.8-4.7c0,0,0,0,0,0h-224.3c-2.6,0-4.8,2.1-4.8,4.7
	c0,2.6,2.1,4.7,4.8,4.7H-103.2z"/>
<path class="st1" d="M-231,501.4c2.6,0,4.8-2.1,4.8-4.7s-2.1-4.7-4.8-4.7l0,0h-96.5c-2.6,0-4.8,2.1-4.8,4.7s2.1,4.7,4.8,4.7H-231z"
	/>
<path class="st0" d="M-353.5,584.4c-2.8,0-5,2.2-5,5V645c0,2.8,2.3,5,5,5h268.8c2.8,0,5-2.2,5-5v-55.6c0-2.8-2.3-5-5-5H-353.5z"/>
<path class="st2" d="M-351.7,588.3c-1.6,0-2.9,1.3-2.9,2.9v52c0,1.6,1.3,2.9,2.9,2.9h265.2c1.6,0,2.9-1.3,2.9-2.9v-52
	c0-1.6-1.3-2.9-2.9-2.9H-351.7z"/>
<path class="st0" d="M-103.2,631.8c2.6,0,4.8-2.1,4.8-4.7s-2.1-4.7-4.7-4.7c0,0,0,0,0,0h-224.3c-2.6,0-4.8,2.1-4.7,4.7
	c0,2.6,2.1,4.7,4.7,4.7H-103.2z"/>
<path class="st1" d="M-231,611.4c2.6,0,4.8-2.1,4.8-4.7s-2.1-4.7-4.8-4.7l0,0h-96.5c-2.6,0-4.8,2.1-4.8,4.7s2.1,4.7,4.8,4.7H-231z"
	/>
<path class="st0" d="M-353.5,694.4c-2.8,0-5,2.2-5,5V755c0,2.8,2.3,5,5,5h268.8c2.8,0,5-2.2,5-5v-55.6c0-2.8-2.3-5-5-5H-353.5z"/>
<path class="st2" d="M-351.7,698.3c-1.6,0-2.9,1.3-2.9,2.9v52c0,1.6,1.3,2.9,2.9,2.9h265.2c1.6,0,2.9-1.3,2.9-2.9v-52
	c0-1.6-1.3-2.9-2.9-2.9H-351.7z"/>
<path class="st0" d="M-103.2,741.8c2.6,0,4.8-2.1,4.8-4.7c0-2.6-2.1-4.7-4.7-4.7c0,0,0,0,0,0h-224.3c-2.6,0-4.8,2.1-4.7,4.7
	c0,2.6,2.1,4.7,4.7,4.7H-103.2z"/>
<path class="st1" d="M-231,721.4c2.6,0,4.8-2.1,4.8-4.7c0-2.6-2.1-4.7-4.8-4.7l0,0h-96.5c-2.6,0-4.8,2.1-4.8,4.7
	c0,2.6,2.1,4.7,4.8,4.7H-231z"/>
<path class="st3" d="M-652.2,936.9L-652.2,936.9c-7.7-1.2-12.9-8.3-11.7-15.9c0.1-0.6,0.2-1.2,0.4-1.8l10.6-35.8l16.2,3l0.7,36.5
	c0.1,7.7-6,14-13.8,14.2C-650.6,937.1-651.4,937.1-652.2,936.9z"/>
<polygon class="st4" points="-558.9,1165.5 -579.1,1162.5 -574.1,967.5 -602.3,1051.5 -617.5,1169.5 -636.7,1164.5 -640.7,1041.5 
	-618.5,896.5 -507.4,921.5 "/>
<path class="st4" d="M-568.2,1213.5L-568.2,1213.5c-8.2,0-14.8-6.6-14.8-14.7c0-0.5,0-1,0.1-1.4l3.1-31.6c0.2-1.5,1.1-2.9,2.4-3.6
	c6-3.2,12.1-2.4,18.3,1.7c1.1,0.8,1.9,1.9,2,3.3l3.6,29.9c1,8.1-4.9,15.4-13,16.3C-567,1213.5-567.6,1213.5-568.2,1213.5z"/>
<path class="st4" d="M-650.6,1211.1L-650.6,1211.1c-6.9-2.5-10.5-10.1-8-17c0.4-1,0.9-1.9,1.5-2.8l21.5-31.7
	c7.8-5.5,12.5-2.8,14.3,7.5l4.4-10.8l3.3,3.5c3.4,3.7,3.7,9.3,0.6,13.3l-22.3,33.7C-639,1211.4-645.2,1213.1-650.6,1211.1z"/>
<ellipse class="st3" cx="-514.5" cy="678.5" rx="30.3" ry="30"/>
<path class="st3" d="M-495.3,733.5l-51.5-10c6.6-14,11.9-18.8,6.1-34h41.4C-503,705.3-499.4,720.1-495.3,733.5z"/>
<path class="st0" d="M-501.3,935.5l-121.2-34c24.3-52.9,29.4-111,22.2-172.4c-0.7-6.1,3.7-11.6,9.8-12.3c0.1,0,0.3,0,0.4,0
	c15.8-1.3,32.3-2.9,49.4-5.3l19.2,13l22.2-5c7.1,3.4,14.3,6.3,20.8,9.1c12.2,5.4,18.4,19.1,14.1,31.7
	C-484.1,819.3-497.4,877.8-501.3,935.5z"/>
<path class="st0" d="M-633.6,890.5l-23.2-3l55-157c2.8-8,9.7-12.3,18.2-13.5l8.1,1l-6.1,93L-633.6,890.5z"/>
<path class="st0" d="M-451.7,860.5L-451.7,860.5c-7.9,0.6-15.4-3.9-18.4-11.2l-22.2-52.8l18.2-65l4.8,3c0.5,0.3,0.9,0.6,1.4,0.9
	c13.8,9.4,20.6,26.2,17.8,42.5l-4.7,27.5l19.6,41.6C-437.4,854.5-443.9,859.9-451.7,860.5z"/>
<path class="st4" d="M-512.1,634L-512.1,634c5.2,0.2,10.2,1.7,14.7,4.3c1,0.6,0.6,2.7,1.5,3.4c1.2,0.9,3.8,0.3,4.9,1.4
	c6.9,6.7,10.5,16.2,9.6,25.7l-1.7,16.6l-4-4.3c-7.2-7.9-17.1-12.7-27.7-13.5c-0.5,0-0.9-0.1-1.4-0.1l3.1-5.3l-5.3,5.3
	c-2.4,0-4.9,0.2-7.3,0.6l4.1-7.1l-7.8,7.8l0,0c-6.5,1.4-11.9,5.8-14.6,11.8l-0.9,1.9l-1-15.9c-0.4-17.7,13.8-32.3,31.6-32.7
	C-513.6,634-512.9,634-512.1,634z"/>
<ellipse class="st3" cx="-484" cy="684.3" rx="2.4" ry="5.7"/>
<ellipse class="st3" cx="-544.8" cy="682.5" rx="2.4" ry="5.7"/>
<path class="st3" d="M-426.4,758.9L-426.4,758.9c7.5,1.8,12.1,9.3,10.3,16.8c-0.1,0.6-0.3,1.2-0.6,1.7l-13.7,34.8l-15.8-4.3
	l2.4-36.4c0.5-7.7,7.2-13.5,14.9-12.9C-428,758.6-427.2,758.7-426.4,758.9z"/>
<polygon class="st0" points="-444.8,858.5 -470,842.5 -448.8,799.5 -422.6,809.5 -435.7,847.5 "/>
<polygon class="st5" points="-453.5,1214.2 -760.3,1214.2 -760.3,1212.1 -453.1,1212.1 "/>
<rect class="st6" width="719.2" height="739.8"/>
<path class="st0" d="M46.6,707.9c4.8,10.8-0.7,33-0.7,33s-20.5-11.8-25.3-22.7s-2.9-22,4.3-24.8S41.8,697,46.6,707.9z"/>
<ellipse class="st7" cx="161.9" cy="558" rx="6.6" ry="6.2"/>
<ellipse class="st7" cx="161.9" cy="516.6" rx="6.6" ry="6.2"/>
<ellipse class="st7" cx="161.9" cy="475.3" rx="6.6" ry="6.2"/>
<path class="st0" d="M186.1,462.9c-1.1,0-2,0.8-2,1.9v20.9c0,1,0.9,1.9,2,1.9h106.5c1.1,0,2-0.8,2-1.9v-20.9c0-1-0.9-1.9-2-1.9
	H186.1z"/>
<path class="st2" d="M186.8,464.4c-0.6,0-1.2,0.5-1.2,1.1V485c0,0.6,0.5,1.1,1.2,1.1h105c0.6,0,1.2-0.5,1.2-1.1v-19.6
	c0-0.6-0.5-1.1-1.2-1.1H186.8z"/>
<path class="st0" d="M285.3,480.8c1,0,1.9-0.8,1.9-1.8c0-1-0.8-1.8-1.9-1.8c0,0,0,0,0,0h-88.8c-1,0-1.9,0.8-1.9,1.8
	c0,1,0.8,1.8,1.9,1.8H285.3z"/>
<path class="st7" d="M234.7,473.1c1,0,1.9-0.8,1.9-1.8s-0.8-1.8-1.9-1.8l0,0h-38.2c-1,0-1.9,0.8-1.9,1.8s0.8,1.8,1.9,1.8H234.7z"/>
<path class="st0" d="M186.1,504.3c-1.1,0-2,0.8-2,1.9v20.9c0,1,0.9,1.9,2,1.9h106.5c1.1,0,2-0.8,2-1.9v-20.9c0-1-0.9-1.9-2-1.9
	H186.1z"/>
<path class="st2" d="M186.8,505.8c-0.6,0-1.2,0.5-1.2,1.1v19.6c0,0.6,0.5,1.1,1.2,1.1h105c0.6,0,1.2-0.5,1.2-1.1v-19.6
	c0-0.6-0.5-1.1-1.2-1.1H186.8z"/>
<path class="st0" d="M285.3,522.1c1,0,1.9-0.8,1.9-1.8c0-1-0.8-1.8-1.9-1.8c0,0,0,0,0,0h-88.8c-1,0-1.9,0.8-1.9,1.8
	c0,1,0.8,1.8,1.9,1.8H285.3z"/>
<path class="st7" d="M234.7,514.4c1,0,1.9-0.8,1.9-1.8c0-1-0.8-1.8-1.9-1.8l0,0h-38.2c-1,0-1.9,0.8-1.9,1.8c0,1,0.8,1.8,1.9,1.8
	H234.7z"/>
<path class="st0" d="M186.1,545.7c-1.1,0-2,0.8-2,1.9v20.9c0,1,0.9,1.9,2,1.9h106.5c1.1,0,2-0.8,2-1.9v-20.9c0-1-0.9-1.9-2-1.9
	H186.1z"/>
<path class="st2" d="M186.8,547.1c-0.6,0-1.2,0.5-1.2,1.1v19.6c0,0.6,0.5,1.1,1.2,1.1h105c0.6,0,1.2-0.5,1.2-1.1v-19.6
	c0-0.6-0.5-1.1-1.2-1.1H186.8z"/>
<path class="st0" d="M285.3,563.5c1,0,1.9-0.8,1.9-1.8c0-1-0.8-1.8-1.9-1.8c0,0,0,0,0,0h-88.8c-1,0-1.9,0.8-1.9,1.8
	c0,1,0.8,1.8,1.9,1.8H285.3z"/>
<path class="st7" d="M234.7,555.8c1,0,1.9-0.8,1.9-1.8s-0.8-1.8-1.9-1.8l0,0h-38.2c-1,0-1.9,0.8-1.9,1.8s0.8,1.8,1.9,1.8H234.7z"/>
<path class="st3" d="M67.8,636.9L67.8,636.9c-3-0.4-5.1-3.1-4.6-6c0-0.2,0.1-0.4,0.2-0.7l4.2-13.5l6.4,1.1l0.3,13.7
	c0.1,2.9-2.4,5.3-5.5,5.3C68.5,637,68.1,636.9,67.8,636.9z"/>
<polygon class="st4" points="104.8,722.9 96.8,721.7 98.8,648.4 87.6,680 81.6,724.4 74,722.5 72.4,676.2 81.2,621.7 125.2,631.1 
	"/>
<path class="st4" d="M101.1,740.9L101.1,740.9c-3.2,0-5.9-2.5-5.9-5.5c0-0.2,0-0.4,0-0.5l1.2-11.9c0.1-0.6,0.4-1.1,1-1.4
	c2.4-1.2,4.8-0.9,7.3,0.7c0.4,0.3,0.7,0.7,0.8,1.2l1.4,11.2c0.4,3-1.9,5.8-5.1,6.1C101.6,740.9,101.3,740.9,101.1,740.9z"/>
<path class="st4" d="M68.4,740L68.4,740c-2.7-0.9-4.2-3.8-3.1-6.4c0.1-0.4,0.3-0.7,0.6-1.1l8.5-11.9c3.1-2.1,4.9-1.1,5.7,2.8
	l1.7-4.1l1.3,1.3c1.4,1.4,1.5,3.5,0.2,5l-8.9,12.7C73,740.1,70.6,740.8,68.4,740z"/>
<ellipse class="st3" cx="122.4" cy="539.7" rx="12" ry="11.3"/>
<path class="st3" d="M130,560.4l-20.4-3.8c2.6-5.3,4.7-7.1,2.4-12.8h16.4C126.9,549.8,128.3,555.3,130,560.4z"/>
<path class="st0" d="M127.6,636.4l-48-12.8c9.6-19.9,11.6-41.7,8.8-64.8c-0.3-2.3,1.5-4.4,3.9-4.6c0.1,0,0.1,0,0.2,0
	c6.3-0.5,12.8-1.1,19.6-2l7.6,4.9l8.8-1.9c2.8,1.3,5.7,2.4,8.2,3.4c4.8,2,7.3,7.2,5.6,11.9C134.4,592.7,129.1,614.7,127.6,636.4z"/>
<path class="st0" d="M75.2,619.4l-9.2-1.1l21.8-59.1c1.1-3,3.9-4.6,7.2-5.1l3.2,0.4l-2.4,35L75.2,619.4z"/>
<path class="st0" d="M147.2,608.1L147.2,608.1c-3.1,0.2-6.1-1.5-7.3-4.2l-8.8-19.9l7.2-24.4l1.9,1.1c0.2,0.1,0.4,0.2,0.5,0.3
	c5.5,3.5,8.1,9.8,7,16l-1.9,10.4l7.7,15.6C152.9,605.9,150.3,607.9,147.2,608.1z"/>
<path class="st4" d="M123.3,523L123.3,523c2.1,0.1,4,0.6,5.8,1.6c0.4,0.2,0.2,1,0.6,1.3c0.5,0.3,1.5,0.1,1.9,0.5
	c2.7,2.5,4.1,6.1,3.8,9.7l-0.7,6.3l-1.6-1.6c-2.8-3-6.8-4.8-11-5.1c-0.2,0-0.4,0-0.5,0l1.2-2l-2.1,2c-1,0-1.9,0.1-2.9,0.2l1.6-2.7
	l-3.1,2.9l0,0c-2.6,0.5-4.7,2.2-5.8,4.4l-0.3,0.7l-0.4-6c-0.2-6.6,5.5-12.2,12.5-12.3C122.7,522.9,123,523,123.3,523z"/>
<ellipse class="st3" cx="134.4" cy="541.9" rx="1" ry="2.2"/>
<ellipse class="st3" cx="110.4" cy="541.2" rx="1" ry="2.2"/>
<path class="st3" d="M157.2,570L157.2,570c3,0.7,4.8,3.5,4.1,6.3c-0.1,0.2-0.1,0.4-0.2,0.7l-5.4,13.1l-6.3-1.6l1-13.7
	c0.2-2.9,2.8-5.1,5.9-4.9C156.6,569.8,156.9,569.9,157.2,570z"/>
<polygon class="st0" points="150,607.4 140,601.4 148.4,585.2 158.8,589 153.6,603.3 "/>
<polygon class="st5" points="342.4,741.6 35.6,741.6 35.6,739.5 342.8,739.5 "/>
</svg>
