<svg id="f71115d1-abc3-47ac-8361-b6e087de44cd" xmlns="http://www.w3.org/2000/svg" viewBox="0 0 719.18 739.78"><defs><style>.cls-1{fill:#4600ff;}.cls-2{fill:#e6e6e6;}.cls-3{fill:#76c81b;}.cls-4{fill:#fff;}.cls-5{fill:#9f616a;}.cls-6{fill:#2f2e41;}.cls-7{fill:#3f3d56;}</style></defs><title>Artboard 1</title><rect class="cls-1" width="719.18" height="739.78"/><path class="cls-2" d="M90.2,653.1c12.1,28.84-1.67,87.78-1.67,87.78s-51.71-31.47-63.81-60.31-7.26-58.37,10.82-66S78.09,624.25,90.2,653.1Z"/><ellipse class="cls-3" cx="381.32" cy="254.64" rx="16.77" ry="16.61"/><ellipse class="cls-3" cx="381.32" cy="144.64" rx="16.77" ry="16.61"/><ellipse class="cls-3" cx="381.32" cy="34.64" rx="16.77" ry="16.61"/><path class="cls-2" d="M442.4,1.84a5,5,0,0,0-5,5V62.43a5,5,0,0,0,5,5H711.19a5,5,0,0,0,5-5V6.84a5,5,0,0,0-5-5Z"/><path class="cls-4" d="M444.21,5.74a2.91,2.91,0,0,0-2.92,2.9v52a2.91,2.91,0,0,0,2.92,2.9H709.37a2.92,2.92,0,0,0,2.93-2.9v-52a2.92,2.92,0,0,0-2.93-2.9Z"/><path class="cls-2" d="M692.72,49.27a4.71,4.71,0,1,0,0-9.42H468.45a4.71,4.71,0,1,0,0,9.42Z"/><path class="cls-3" d="M565,28.81a4.71,4.71,0,1,0,0-9.42h-96.5a4.71,4.71,0,1,0,0,9.42Z"/><path class="cls-2" d="M442.4,111.84a5,5,0,0,0-5,5v55.59a5,5,0,0,0,5,5H711.19a5,5,0,0,0,5-5V116.84a5,5,0,0,0-5-5Z"/><path class="cls-4" d="M444.21,115.74a2.91,2.91,0,0,0-2.92,2.9v52a2.91,2.91,0,0,0,2.92,2.9H709.37a2.92,2.92,0,0,0,2.93-2.9v-52a2.92,2.92,0,0,0-2.93-2.9Z"/><path class="cls-2" d="M692.72,159.27a4.71,4.71,0,1,0,0-9.42H468.45a4.71,4.71,0,1,0,0,9.42Z"/><path class="cls-3" d="M565,138.81a4.71,4.71,0,1,0,0-9.42h-96.5a4.71,4.71,0,1,0,0,9.42Z"/><path class="cls-2" d="M442.4,221.84a5,5,0,0,0-5,5v55.59a5,5,0,0,0,5,5H711.19a5,5,0,0,0,5-5V226.84a5,5,0,0,0-5-5Z"/><path class="cls-4" d="M444.21,225.74a2.91,2.91,0,0,0-2.92,2.9v52a2.91,2.91,0,0,0,2.92,2.9H709.37a2.92,2.92,0,0,0,2.93-2.9v-52a2.92,2.92,0,0,0-2.93-2.9Z"/><path class="cls-2" d="M692.72,269.27a4.71,4.71,0,1,0,0-9.42H468.45a4.71,4.71,0,1,0,0,9.42Z"/><path class="cls-3" d="M565,248.81a4.71,4.71,0,1,0,0-9.42h-96.5a4.71,4.71,0,1,0,0,9.42Z"/><path class="cls-5" d="M143.73,464.37h0A13.91,13.91,0,0,1,132,448.5a15.11,15.11,0,0,1,.4-1.77l10.64-35.8,16.16,3,.69,36.45a14,14,0,0,1-13.76,14.16A14.12,14.12,0,0,1,143.73,464.37Z"/><polygon class="cls-6" points="237 692.93 216.8 689.93 221.85 494.93 193.57 578.93 178.42 696.93 159.23 691.93 155.19 568.93 177.41 423.93 288.51 448.93 237 692.93"/><path class="cls-6" d="M227.72,740.93h0a14.77,14.77,0,0,1-14.84-14.7,13.88,13.88,0,0,1,.07-1.44l3.14-31.58a4.62,4.62,0,0,1,2.43-3.62c6-3.18,12.08-2.41,18.35,1.74a4.64,4.64,0,0,1,2,3.29l3.58,29.88a14.72,14.72,0,0,1-13,16.32A14.55,14.55,0,0,1,227.72,740.93Z"/><path class="cls-6" d="M145.27,738.58h0a13.21,13.21,0,0,1-8-17,13.39,13.39,0,0,1,1.46-2.84L160.33,687c7.77-5.52,12.45-2.83,14.27,7.48l4.36-10.8,3.28,3.54a10.25,10.25,0,0,1,.55,13.32l-22.35,33.68A13.45,13.45,0,0,1,145.27,738.58Z"/><ellipse class="cls-5" cx="281.44" cy="205.93" rx="30.3" ry="30"/><path class="cls-5" d="M300.63,260.93l-51.51-10c6.63-14,11.95-18.75,6.06-34h41.41C292.94,232.72,296.46,247.55,300.63,260.93Z"/><path class="cls-2" d="M294.57,462.93l-121.2-34c24.28-52.91,29.36-111,22.16-172.38a11.14,11.14,0,0,1,9.84-12.33l.41,0c15.81-1.29,32.29-2.94,49.4-5.25l19.19,13,22.22-5c7.13,3.42,14.31,6.26,20.79,9.1a25.66,25.66,0,0,1,14.13,31.66C311.77,346.73,298.55,405.23,294.57,462.93Z"/><path class="cls-2" d="M162.26,417.93l-23.23-3,55-157c2.8-8,9.74-12.31,18.19-13.5l8.08,1-6.06,93Z"/><path class="cls-2" d="M344.23,387.91h0a18.41,18.41,0,0,1-18.42-11.18l-22.15-52.8,18.18-65,4.8,3,1.37.9a42.6,42.6,0,0,1,17.76,42.55L341,332.93l19.55,41.57A18.34,18.34,0,0,1,344.23,387.91Z"/><path class="cls-6" d="M283.77,161.46h0a32.46,32.46,0,0,1,14.7,4.29c1,.59.55,2.73,1.5,3.43,1.2.88,3.81.35,4.87,1.38a31.76,31.76,0,0,1,9.59,25.72l-1.69,16.64-4-4.31A41.69,41.69,0,0,0,281,195.13c-.45,0-.9-.06-1.36-.07l3.07-5.32L277.4,195a52.14,52.14,0,0,0-7.27.59l4.08-7.08-7.83,7.76h0a20.87,20.87,0,0,0-14.62,11.81l-.87,1.91-1-15.88a32.15,32.15,0,0,1,31.62-32.69C282.27,161.42,283,161.43,283.77,161.46Z"/><ellipse class="cls-5" cx="311.94" cy="211.73" rx="2.43" ry="5.72"/><ellipse class="cls-5" cx="251.09" cy="209.92" rx="2.43" ry="5.72"/><path class="cls-5" d="M369.5,286.37h0a13.89,13.89,0,0,1,10.29,16.8,13.5,13.5,0,0,1-.55,1.74l-13.67,34.77-15.84-4.34L352.16,299a14.1,14.1,0,0,1,17.34-12.58Z"/><polygon class="cls-2" points="351.13 385.93 325.88 369.93 347.09 326.93 373.35 336.93 360.22 374.93 351.13 385.93"/><polygon class="cls-7" points="342.39 741.62 35.62 741.62 35.62 739.51 342.77 739.51 342.39 741.62"/></svg>