<svg id="f71115d1-abc3-47ac-8361-b6e087de44cd" xmlns="http://www.w3.org/2000/svg" viewBox="0 0 303.72 288.52"><defs><style>.cls-1{fill:#4600ff;}.cls-2{fill:#e6e6e6;}.cls-3{fill:#76c81b;}.cls-4{fill:#fff;}.cls-5{fill:#9f616a;}.cls-6{fill:#2f2e41;}.cls-7{fill:#3f3d56;}</style></defs><title>Artboard 2</title><rect class="cls-1" y="-451.26" width="719.18" height="739.78"/><path class="cls-2" d="M46.63,256.63c4.79,10.85-.66,33-.66,33S25.49,277.81,20.7,267,17.82,245,25,242.15,41.84,245.78,46.63,256.63Z"/><ellipse class="cls-3" cx="161.93" cy="106.75" rx="6.64" ry="6.25"/><ellipse class="cls-3" cx="161.93" cy="65.38" rx="6.64" ry="6.25"/><ellipse class="cls-3" cx="161.93" cy="24" rx="6.64" ry="6.25"/><path class="cls-2" d="M186.12,11.67a1.94,1.94,0,0,0-2,1.88v20.9a2,2,0,0,0,2,1.89H292.57a2,2,0,0,0,2-1.89V13.55a1.94,1.94,0,0,0-2-1.88Z"/><path class="cls-4" d="M186.84,13.13a1.13,1.13,0,0,0-1.16,1.09V33.78a1.13,1.13,0,0,0,1.16,1.09h105A1.13,1.13,0,0,0,293,33.78V14.22a1.13,1.13,0,0,0-1.16-1.09Z"/><path class="cls-2" d="M285.25,29.51a1.78,1.78,0,1,0,0-3.55H196.43a1.78,1.78,0,1,0,0,3.55Z"/><path class="cls-3" d="M234.65,21.81a1.77,1.77,0,1,0,0-3.54H196.43a1.77,1.77,0,1,0,0,3.54Z"/><path class="cls-2" d="M186.12,53a1.94,1.94,0,0,0-2,1.88V75.83a1.94,1.94,0,0,0,2,1.88H292.57a1.94,1.94,0,0,0,2-1.88V54.92a1.94,1.94,0,0,0-2-1.88Z"/><path class="cls-4" d="M186.84,54.51a1.13,1.13,0,0,0-1.16,1.09V75.15a1.12,1.12,0,0,0,1.16,1.09h105A1.12,1.12,0,0,0,293,75.15V55.6a1.13,1.13,0,0,0-1.16-1.09Z"/><path class="cls-2" d="M285.25,70.88a1.77,1.77,0,1,0,0-3.54H196.43a1.77,1.77,0,1,0,0,3.54Z"/><path class="cls-3" d="M234.65,63.18a1.77,1.77,0,1,0,0-3.54H196.43a1.77,1.77,0,1,0,0,3.54Z"/><path class="cls-2" d="M186.12,94.42a1.94,1.94,0,0,0-2,1.88v20.91a1.94,1.94,0,0,0,2,1.88H292.57a2,2,0,0,0,2-1.88V96.3a1.94,1.94,0,0,0-2-1.88Z"/><path class="cls-4" d="M186.84,95.88A1.13,1.13,0,0,0,185.68,97v19.56a1.13,1.13,0,0,0,1.16,1.09h105a1.13,1.13,0,0,0,1.16-1.09V97a1.13,1.13,0,0,0-1.16-1.09Z"/><path class="cls-2" d="M285.25,112.26a1.78,1.78,0,1,0,0-3.55H196.43a1.78,1.78,0,1,0,0,3.55Z"/><path class="cls-3" d="M234.65,104.56a1.77,1.77,0,1,0,0-3.54H196.43a1.77,1.77,0,1,0,0,3.54Z"/><path class="cls-5" d="M67.83,185.64h0A5.11,5.11,0,0,1,63.36,179l4.21-13.47,6.4,1.13.27,13.71a5.37,5.37,0,0,1-5.45,5.32A5.16,5.16,0,0,1,67.83,185.64Z"/><polygon class="cls-6" points="104.77 271.61 96.77 270.48 98.77 197.14 87.57 228.73 81.57 273.12 73.97 271.24 72.37 224.97 81.17 170.43 125.17 179.83 104.77 271.61"/><path class="cls-6" d="M101.1,289.67h0a5.71,5.71,0,0,1-5.88-5.53c0-.18,0-.36,0-.54l1.25-11.88a1.72,1.72,0,0,1,1-1.36c2.36-1.2,4.78-.91,7.27.65a1.79,1.79,0,0,1,.8,1.24l1.41,11.24a5.61,5.61,0,0,1-5.14,6.14C101.56,289.65,101.33,289.67,101.1,289.67Z"/><path class="cls-6" d="M68.44,288.78h0a4.91,4.91,0,0,1-3.15-6.39,5,5,0,0,1,.58-1.06L74.4,269.4c3.08-2.08,4.94-1.07,5.66,2.81l1.72-4.06,1.3,1.33a3.71,3.71,0,0,1,.22,5l-8.85,12.67A5.5,5.5,0,0,1,68.44,288.78Z"/><ellipse class="cls-5" cx="122.37" cy="88.43" rx="12" ry="11.28"/><path class="cls-5" d="M130,109.12l-20.4-3.76c2.63-5.27,4.73-7.06,2.4-12.79h16.4C126.92,98.51,128.32,104.09,130,109.12Z"/><path class="cls-2" d="M127.57,185.1l-48-12.79c9.61-19.9,11.63-41.74,8.78-64.84a4.23,4.23,0,0,1,3.89-4.63l.17,0c6.26-.48,12.78-1.11,19.56-2l7.6,4.89,8.8-1.88c2.82,1.29,5.67,2.36,8.23,3.43a9.49,9.49,0,0,1,5.6,11.9C134.38,141.39,129.14,163.4,127.57,185.1Z"/><path class="cls-2" d="M75.17,168.17,66,167l21.79-59c1.11-3,3.86-4.63,7.21-5.08l3.2.38-2.4,35Z"/><path class="cls-2" d="M147.24,156.88h0a7.35,7.35,0,0,1-7.3-4.2l-8.77-19.86,7.2-24.45,1.9,1.14.54.33a15.7,15.7,0,0,1,7,16L146,136.2l7.74,15.64A7.18,7.18,0,0,1,147.24,156.88Z"/><path class="cls-6" d="M123.29,71.71h0a13.34,13.34,0,0,1,5.82,1.61c.41.22.22,1,.6,1.29s1.51.13,1.93.52a11.58,11.58,0,0,1,3.79,9.67l-.67,6.26-1.58-1.62a16.87,16.87,0,0,0-11-5.07l-.53,0,1.21-2-2.11,2a21.35,21.35,0,0,0-2.88.22l1.62-2.66-3.1,2.92h0a8.19,8.19,0,0,0-5.8,4.44l-.34.72-.39-6c-.15-6.64,5.46-12.15,12.52-12.29A8.77,8.77,0,0,1,123.29,71.71Z"/><ellipse class="cls-5" cx="134.45" cy="90.61" rx="0.96" ry="2.15"/><ellipse class="cls-5" cx="110.35" cy="89.93" rx="0.96" ry="2.15"/><path class="cls-5" d="M157.24,118.69h0a5.22,5.22,0,0,1,4.08,6.32,5,5,0,0,1-.22.65l-5.41,13.08-6.27-1.63,1-13.69a5.45,5.45,0,0,1,5.91-4.87A6,6,0,0,1,157.24,118.69Z"/><polygon class="cls-2" points="149.97 156.14 139.97 150.12 148.37 133.94 158.77 137.71 153.57 152 149.97 156.14"/><polygon class="cls-7" points="342.39 290.36 35.62 290.36 35.62 288.25 342.77 288.25 342.39 290.36"/></svg>