<svg id="b098510b-f452-4b85-993b-a1bbfe267c61" xmlns="http://www.w3.org/2000/svg" xmlns:xlink="http://www.w3.org/1999/xlink" viewBox="0 0 537 409.17"><defs><style>.cls-1,.cls-6{fill:#6c63ff;}.cls-1,.cls-21,.cls-4,.cls-9{opacity:0.1;}.cls-1,.cls-17,.cls-21,.cls-4{isolation:isolate;}.cls-2{fill:url(#linear-gradient);}.cls-21,.cls-3{fill:#fff;}.cls-5{fill:#cf6f80;}.cls-7{fill:#3f3d56;}.cls-8{fill:#512e4e;}.cls-10{fill:#535461;}.cls-11{fill:#9d9cb5;}.cls-12{fill:none;stroke:#535461;stroke-miterlimit:10;stroke-width:2px;}.cls-13{fill:url(#linear-gradient-2);}.cls-14{fill:#1d2366;}.cls-15{fill:#ffb0b1;}.cls-16{fill:#c7daf5;}.cls-17{opacity:0.03;}.cls-18{fill:#dce7ff;}.cls-19{fill:#591d4b;}.cls-20{fill:#be8b87;}.cls-22{fill:#efc8c4;}.cls-23{fill:#727a9c;}</style><linearGradient id="linear-gradient" x1="212.95" y1="-429.35" x2="212.95" y2="-121.7" gradientTransform="matrix(1, 0, 0, -1, -47.24, -24.13)" gradientUnits="userSpaceOnUse"><stop offset="0" stop-color="gray" stop-opacity="0.25"/><stop offset="0.54" stop-color="gray" stop-opacity="0.12"/><stop offset="1" stop-color="gray" stop-opacity="0.1"/></linearGradient><linearGradient id="linear-gradient-2" x1="462.34" y1="-425.47" x2="462.34" y2="-144.46" xlink:href="#linear-gradient"/></defs><title>medicine</title><ellipse class="cls-1" cx="170.83" cy="401.13" rx="45.24" ry="7.82"/><ellipse class="cls-1" cx="416.76" cy="401.35" rx="56.46" ry="7.82"/><path class="cls-1" d="M6.68,186.91H53.81v69.16H10.13c-.11.71-.22,1.42-.35,2.14h44V314l-.23-.09c-1.24-.53-2.48-1.09-3.71-1.69l-.79-.38c-1.24-.63-2.48-1.3-3.72-2l-1.29-.76a78.52,78.52,0,0,1-18.51-15.58c-.16-.17-.31-.34-.47-.5-.75-.88-1.49-1.77-2.2-2.68l-.79-1c-.85-1.12-1.66-2.26-2.46-3.42-.11-.17-.23-.34-.35-.5a75.84,75.84,0,0,1-8-15.55c-.07-.17-.12-.35-.18-.5q-1-2.65-1.7-5.35c-.21-.76-.42-1.5-.59-2.29-.07-.23-.12-.45-.17-.68C6,249.94,5.72,238.42,5.72,227v-4c0-4.63,0-9.28.12-13.93,0-1.21,0-2.4.07-3.61q.11-4.6.28-9.21c0-.86.07-1.71.11-2.56a14.46,14.46,0,0,1,.07-1.47C6.48,190.43,6.57,188.67,6.68,186.91Z"/><path class="cls-1" d="M53.81,109.9H28A208.83,208.83,0,0,1,41.71,89.52c3.84-5.08,7.89-10,12.1-14.8Z"/><path class="cls-1" d="M53.81,112v72.73h-47c0-.21,0-.43,0-.64,0-.57.08-1.15.13-1.72s.1-1.34.17-2,.12-1.45.19-2.18.13-1.46.21-2.18.15-1.45.24-2.17.15-1.45.24-2.17.15-1.2.22-1.8c.11-.84.22-1.69.34-2.53a2.32,2.32,0,0,1,.05-.38,184.76,184.76,0,0,1,3.46-18.26A140.87,140.87,0,0,1,18,130.24a143.46,143.46,0,0,1,8.76-18.18Z"/><path class="cls-1" d="M65.06,186.9v69.17H165.7V186.9Zm0,71.3v59.4c.57.13,1.14.26,1.71.36.77.16,1.54.31,2.32.43l.46.07.93.14c.78.12,1.55.21,2.33.29l1.1.1.9.08h0c.49,0,1,.07,1.45.08.3,0,.59,0,.9,0h3.31a11.73,11.73,0,0,0,1.19,0h0a5.77,5.77,0,0,0,.83,0h.24a5.08,5.08,0,0,0,.68,0h.16l1.56-.13,1.55-.18,1.06-.13a87.64,87.64,0,0,0,12.74-2.92c9.39-2.82,18.57-6.77,28-9.66,12.13-3.72,25.53-5.55,37.26-1V258.2ZM165.7,109.9V17.81A120.61,120.61,0,0,0,133,21.94c-25.48,6.9-48.35,21.85-67.94,41v47h5V112h-5v72.74H165.7V112H90.85V109.9ZM295,78.79a39.51,39.51,0,0,1-18.24-5.71c-10.84-6.35-19.5-16.15-29.18-24.43a128.79,128.79,0,0,0-70.62-30.21V109.9H320.62l.36-.41Zm13.09-2.5L322,92.69V72c-4.65.62-8.72,2.1-13.86,4.28ZM322,332.35V258.2H292.38c-.08-.31-.16-.63-.25-.95l.24.95H177v53.63c1.1.87,2.18,1.79,3.25,2.73h0c1.16,1,2.3,2.05,3.45,3.09l1.15,1c.56.5,1.11,1,1.68,1.47,1.11,1,2.24,1.93,3.37,2.88.56.5,1.14,1,1.71,1.42a231.79,231.79,0,0,0,28.62,20.15q3.34,2,6.77,3.91c1.52.83,3,1.66,4.58,2.47q3.45,1.81,7,3.5h0a242.17,242.17,0,0,0,67.79,21.26q7.8,1.25,15.65,1.95V332.35h0ZM177,112v72.74H322V112Zm0,74.87v69.17H322V186.9Zm156.26-115V95l17.71-20.93a178.38,178.38,0,0,0-17.71-2.18Zm0,115v69.14h141V186.9ZM473.74,337.84l.5-79.64h-141V378.49a236.13,236.13,0,0,0,27.26-.35h.15q6.51-.43,12.94-1.28h.1a224.92,224.92,0,0,0,66.49-19.11m61.29-159.46c-.53-1.34-1.08-2.68-1.64-4-1.05-2.5-2.16-4.93-3.31-7.36h-11v69.14h27.82c0-19.58-4.61-39.58-11.86-57.8ZM485.5,258.23v68.5a98,98,0,0,0,19.23-27.93,102.34,102.34,0,0,0,8.57-40.58Zm0-91.46v18h10a195.71,195.71,0,0,0-10-18Zm-95.65-81.3-2.2-.9a190.68,190.68,0,0,0-23.83-7.71l-27.1,32h0l-.52.59.35.41H433a201.51,201.51,0,0,0-43.15-24.45Zm46,26.59H335.2l-2,2v70.76h141V150.49A207.85,207.85,0,0,0,435.86,112Z"/><path class="cls-1" d="M53.81,148.72v36.05h-47c0-.21,0-.43,0-.64,0-.57.08-1.15.13-1.72s.1-1.34.17-2,.12-1.45.19-2.18.13-1.46.21-2.18.15-1.45.24-2.17.15-1.45.24-2.17.15-1.2.22-1.8c.11-.84.22-1.69.34-2.53a2.32,2.32,0,0,1,.05-.38,184.76,184.76,0,0,1,3.46-18.26Z"/><path class="cls-1" d="M6.68,186.91H53.81v69.16H10.13c-.11.71-.22,1.42-.35,2.14h44V314l-.23-.09c-1.24-.53-2.48-1.09-3.71-1.69l-.79-.38c-1.24-.63-2.48-1.3-3.72-2l-1.29-.76a78.52,78.52,0,0,1-18.51-15.58c-.16-.17-.31-.34-.47-.5-.75-.88-1.49-1.77-2.2-2.68l-.79-1c-.85-1.12-1.66-2.26-2.46-3.42-.11-.17-.23-.34-.35-.5a75.84,75.84,0,0,1-8-15.55c-.07-.17-.12-.35-.18-.5q-1-2.65-1.7-5.35c-.21-.76-.42-1.5-.59-2.29-.07-.23-.12-.45-.17-.68C6,249.94,5.72,238.42,5.72,227v-4c0-4.63,0-9.28.12-13.93,0-1.21,0-2.4.07-3.61q.11-4.6.28-9.21c0-.86.07-1.71.11-2.56a14.46,14.46,0,0,1,.07-1.47C6.48,190.43,6.57,188.67,6.68,186.91Z"/><polygon class="cls-1" points="100.49 122.45 100.49 184.76 65.06 184.76 65.06 122.45 70.11 122.45 70.11 101.35 90.84 101.35 90.84 122.45 100.49 122.45"/><rect class="cls-1" x="65.06" y="186.9" width="35.43" height="69.16"/><path class="cls-1" d="M65.06,258.21h35.43v57.5a86.16,86.16,0,0,1-12.75,2.91l-1.06.14-1.54.18-1.56.13h-.16l-.68,0H82.5c-.28,0-.56,0-.84,0h0c-.39,0-.79,0-1.19,0H77.18l-.89,0c-.47,0-1-.05-1.45-.09h0L74,319l-1.11-.11c-.78-.07-1.56-.17-2.32-.28l-.93-.14-.47-.07c-.77-.13-1.54-.27-2.32-.43l-1.71-.36Z"/><rect class="cls-1" x="292.75" y="115.09" width="29.21" height="69.67"/><polygon class="cls-1" points="321.97 186.9 321.97 256.07 176.96 256.07 176.96 226.24 254.2 226.24 254.2 243.84 292.75 243.84 292.75 186.9 321.97 186.9"/><path class="cls-1" d="M322.43,332.37H322v45.37q-7.85-.71-15.65-1.94a242,242,0,0,1-67.82-21.31q-9.34-4.53-18.31-9.89a232.63,232.63,0,0,1-28.62-20.16q-3.42-2.82-6.75-5.77c-1.53-1.36-3.06-2.76-4.61-4.12-1.07-.94-2.15-1.86-3.25-2.74v-53.6H292.37l-.24-1c.08.32.17.64.25,1H322v74.13Z"/><path class="cls-1" d="M398.16,109.9h-19v-6.37h8.54v-19c.74.29,1.47.59,2.21.9v18.08h8.29Z"/><path class="cls-1" d="M444,184.77H350.57l0,0,0,0H333.22V115.09h4.91v51.5h22.45v-30.5h18.55V112h19v24.07h18.55v30.5H444Z"/><path class="cls-1" d="M333.22,186.9v69.17H444V186.9ZM474.1,337.49l.15-54.75H444v-24.5H333.22V378.49a236.13,236.13,0,0,0,27.26-.35h.15q6.51-.43,12.94-1.28h.1a224.92,224.92,0,0,0,66.49-19.11"/><path class="cls-1" d="M487.47,258.21h25.85a102.56,102.56,0,0,1-8.58,40.58,98,98,0,0,1-19.22,27.92v-44h2Z"/><path class="cls-1" d="M513.33,256.07H487.47v-57.8h14C508.71,216.49,513.31,236.49,513.33,256.07Z"/><rect class="cls-1" x="306.32" y="134.46" width="15.65" height="21.84"/><rect class="cls-1" x="306.32" y="179.74" width="15.65" height="5.03"/><rect class="cls-1" x="306.32" y="186.9" width="15.65" height="14.67"/><rect class="cls-1" x="306.32" y="225.01" width="15.65" height="21.84"/><rect class="cls-1" x="306.32" y="270.29" width="15.65" height="21.84"/><path class="cls-1" d="M322,332.34a2.37,2.37,0,0,1,.46,0H322v5.07H306.32V315.57H322Z"/><path class="cls-1" d="M322,360.84v16.88q-7.85-.72-15.65-2V360.84Z"/><rect class="cls-1" x="176.96" y="254.46" width="67.08" height="1.6"/><rect class="cls-1" x="176.96" y="258.2" width="67.08" height="6.15"/><rect class="cls-1" x="176.96" y="284.51" width="67.08" height="9.89"/><path class="cls-1" d="M244,314.56v9.89H191.57q-3.42-2.81-6.75-5.77c-1.54-1.36-3.06-2.76-4.61-4.12Z"/><path class="cls-1" d="M244,344.61v9.88H238.5q-9.34-4.53-18.31-9.9Z"/><rect class="cls-1" x="360.48" y="193.61" width="13.2" height="14.22"/><rect class="cls-1" x="74.57" y="127.35" width="13.2" height="14.22"/><rect class="cls-1" x="74.57" y="160.38" width="13.2" height="14.22"/><rect class="cls-1" x="74.57" y="193.41" width="13.2" height="14.22"/><rect class="cls-1" x="74.57" y="226.43" width="13.2" height="14.22"/><rect class="cls-1" x="74.57" y="259.46" width="13.2" height="14.22"/><rect class="cls-1" x="74.57" y="292.49" width="13.2" height="14.22"/><rect class="cls-1" x="410.89" y="193.61" width="13.2" height="14.22"/><rect class="cls-1" x="360.48" y="228.68" width="13.2" height="14.22"/><rect class="cls-1" x="410.89" y="228.68" width="13.2" height="14.22"/><rect class="cls-1" x="360.48" y="263.75" width="13.2" height="14.22"/><rect class="cls-1" x="410.89" y="263.75" width="13.2" height="14.22"/><rect class="cls-1" x="360.48" y="298.82" width="13.2" height="14.22"/><rect class="cls-1" x="410.89" y="298.82" width="13.2" height="14.22"/><rect class="cls-1" x="360.48" y="333.9" width="13.2" height="14.22"/><rect class="cls-1" x="410.89" y="333.9" width="13.2" height="14.22"/><polygon class="cls-1" points="360.48 378.14 360.48 368.97 373.68 368.97 373.68 376.83 360.48 378.14"/><path class="cls-1" d="M8.61,167v8.14h45.2V167Zm4.51,7.63H9.43v-7.13h3.72Zm4.5,0H13.9v-7.13h3.72Zm4.49,0H18.39v-7.13h3.72Zm4.5,0H22.9v-7.13h3.71Zm4.49,0H27.39v-7.13H31.1Zm4.5,0H31.89v-7.13H35.6Zm4.5,0H36.38v-7.13H40.1Zm4.49,0H40.88v-7.13h3.71Zm4.5,0H45.37v-7.13h3.72Zm4.49,0H49.87v-7.13h3.71Z"/><path class="cls-1" d="M8.61,190.66v8.14h45.2v-8.14Zm4.51,7.62H9.43v-7.1h3.72Zm4.5,0H13.9v-7.1h3.72Zm4.49,0H18.39v-7.1h3.72Zm4.5,0H22.9v-7.1h3.71Zm4.49,0H27.39v-7.1H31.1Zm4.5,0H31.89v-7.1H35.6Zm4.5,0H36.38v-7.1H40.1Zm4.49,0H40.88v-7.1h3.71Zm4.5,0H45.37v-7.1h3.72Zm4.49,0H49.87v-7.1h3.71Z"/><path class="cls-1" d="M8.61,214.34v8.15h45.2v-8.15ZM13.12,222H9.43v-7.11h3.72Zm4.5,0H13.9v-7.11h3.72Zm4.49,0H18.39v-7.11h3.72Zm4.5,0H22.9v-7.11h3.71Zm4.49,0H27.39v-7.11H31.1Zm4.5,0H31.89v-7.11H35.6Zm4.5,0H36.38v-7.11H40.1Zm4.49,0H40.88v-7.11h3.71Zm4.5,0H45.37v-7.11h3.72Zm4.49,0H49.87v-7.11h3.71Z"/><path class="cls-1" d="M8.61,238v8.12h45.2V238Zm4.51,7.62H9.43v-7.12h3.72Zm4.5,0H13.9v-7.12h3.72Zm4.49,0H18.39v-7.12h3.72Zm4.5,0H22.9v-7.12h3.71Zm4.49,0H27.39v-7.12H31.1Zm4.5,0H31.89v-7.12H35.6Zm4.5,0H36.38v-7.12H40.1Zm4.49,0H40.88v-7.12h3.71Zm4.5,0H45.37v-7.12h3.72Zm4.49,0H49.87v-7.12h3.71Z"/><path class="cls-1" d="M8.81,261.69c.18.77.39,1.53.6,2.29V262.2h3.71v7.11h-2c.06.17.12.35.18.5H53.81v-8.12Zm8.82,7.62H13.92V262.2h3.71Zm4.49,0H18.41V262.2h3.71Zm4.5,0H22.9V262.2h3.71Zm4.49,0H27.4V262.2h3.71Zm4.5,0H31.9V262.2h3.71Zm4.5,0H36.4V262.2h3.71Zm4.5,0H40.89V262.2h3.72Zm4.49,0H45.39V262.2H49.1Zm4.5,0H49.88V262.2H53.6Z"/><path class="cls-1" d="M19.3,285.37c.12.16.23.34.35.5h2.46v3.42c.26.34.52.68.79,1v-4.44h3.72V293H25.11c.15.16.29.34.47.5H53.82v-8.12ZM31.1,293H27.39v-7.11H31.1Zm4.5,0H31.89v-7.11H35.6Zm4.5,0H36.38v-7.11H40.1Zm4.49,0H40.88v-7.11h3.71Zm4.5,0H45.37v-7.11h3.72Zm4.49,0H49.87v-7.11h3.71Z"/><path class="cls-1" d="M44.09,309.05c.42.26.86.5,1.29.76v-.25H49.1v2.25l.79.39v-2.64H53.6v4.32a1,1,0,0,0,.22.09v-4.92Z"/><path class="cls-1" d="M350.57,184.77ZM322,332.33Zm-29.84-75.08.24.95h0C292.3,257.89,292.22,257.57,292.13,257.25Zm58.44-72.5ZM70.13,109.88V112H90.87v-2.14ZM322,332.33Zm-29.84-75.08.24.95h0C292.3,257.89,292.22,257.57,292.13,257.25Zm58.44-72.5ZM322,332.32Zm-29.84-75.07.24.95h0C292.3,257.89,292.22,257.57,292.13,257.25Z"/><path class="cls-2" d="M214.58,207.64s-1.83-.28-1.83-3.14a48.07,48.07,0,0,0-1.31-8.23h0s-1.13-9.34-2.7-10.82-3.57-10.17-3.57-10.17-.34-4.71-1-5.73a49.35,49.35,0,0,1-3-7c-1.4-3.55-7.23-6-7.23-6s-10.53-6.58-13.52-8.73h0a4.88,4.88,0,0,1-.75-.61c-.52-.74-2.79-.75-2.79-.75-.24-1.61-.46-3.46-.54-5.14a4.87,4.87,0,0,0,0-.54,17.08,17.08,0,0,0,7.06-9.41c.06-.19.1-.39.15-.58a1.52,1.52,0,0,0,.91-.88,18.55,18.55,0,0,1,.61-2,7,7,0,0,1,1.72-1.62c1.47-1.35,1.85-3.63,1.78-5.7,0-1.67-.29-3.36-.2-5l0-.42c0-.25.06-.5.1-.74.23-1.24.73-2.41,1-3.64a5,5,0,0,0-.35-3.67c-1-1.56-2.93-1.87-4.67-2-2-.18-3.74.06-5-1.71a18.64,18.64,0,0,0-2-2.58c-.26-.26-2.79-1.92-2.79-2a10.55,10.55,0,0,0-7.87-.65c-1.3.41-2.54,1.08-3.87,1.41-2.86.73-6.16-.06-8.59,1.71a10.77,10.77,0,0,0-2.93,4.14c-.62,1.27-1.25,2.55-1.89,3.82a26.14,26.14,0,0,0-2.5,6.55,11,11,0,0,0-.17,1.53h0V118a2.64,2.64,0,0,0,0,.5c0,.16,0,.21,0,.31s0,.34.06.5.09.44.14.66l.09.28a4.83,4.83,0,0,0,.16.5c0,.08.06.17.1.26a4.59,4.59,0,0,0,.24.5,1.86,1.86,0,0,0,.1.2,6.9,6.9,0,0,0,.43.67c1,1.33,2.45,2.18,3.53,3.43v.56a17.49,17.49,0,0,0,7.24,14c0,.19,0,.38,0,.57a31.64,31.64,0,0,1-.05,4.46,1.87,1.87,0,0,0-1.54-.74,1.75,1.75,0,0,0-.6.05l0,0h0v0c-1,.27-2.28,1.42-3.48,4.67,0,0-3.66,4.44-6.44,4.26s-9.84,4.62-9.84,4.62-6.88,4.81-8.36,9.71a75.31,75.31,0,0,1-3,8.14L117.15,195h0l-1.57,15a75,75,0,0,1,.7,7.68c-.17,1,3.57,10.17,3.57,10.17s12.36,23.39,17.41,24.59l.37-.27a2.68,2.68,0,0,0,.68.27l1-.79a12.91,12.91,0,0,1-.08,2.64c-.7,2.31.26,17.39,1.48,20.34s.78,41.7.78,41.7l-.17,3.42a1.62,1.62,0,0,0,0,.3l0,.81.13.07a10.48,10.48,0,0,1-.13,3.26,38.27,38.27,0,0,0-.61,5.74s-3.48,23.94-1.83,28.75S142,368.72,142,368.72s1.74,6,.08,7-6.37,2.75-5.4,5.25c.88,2.31,4.23,8.5,4.73,9.4l0,.48-.69,8a10.48,10.48,0,0,0,.79,3c.75,1.74,2.2,3.54,5,3.34.47,0,1-.09,1.53-.17a62.25,62.25,0,0,0,11.28-3.16,4.36,4.36,0,0,1-.88-.78h0a2.83,2.83,0,0,1-.78-2c.07-1.45-2.45-8.36-3.07-10.06-.1-.25-.15-.39-.15-.39s5.75-6.47,4.79-12.2c0,0-6.36-4-4.27-6.2s5.84-8.5,5.84-8.5.17-23.57,0-27.09a31.48,31.48,0,0,1,.32-7.32c.07-.36.15-.72.24-1.07A55.83,55.83,0,0,0,170,327c1.07,0,2.15,0,3.25-.07,0,.33,0,.69,0,1.08.24,5.84.69,16.08,1.06,19.88.52,5.46,3.39,20.16,3.39,20.16s-5.48,3.79,1,13.13c0,0,0,3.38-.43,3.87h0a47.8,47.8,0,0,0-1.1,4.88c-.27,1.76-.38,3.54.06,4.47,1,2.21,7.31,2,7.31,2h0l.15,0a8.57,8.57,0,0,1,6.64,2.15c2.38,2.06,11.42,1.16,16.31.5,1.92-.26,3.2-.5,3.2-.5a1.92,1.92,0,0,0,.07-.72h0c0-1.29-1-4.13-7.38-6.67,0,0-6-4.35-5.93-8.14h-.82a6,6,0,0,1,.83,0s-2.35-9.25-1.39-10-1.92-11-1.92-11-1.65-17.2-1.74-18.4a11.19,11.19,0,0,1,.44-3.05l-.44-9.43s-.08-3.14,0-4.16a21.32,21.32,0,0,0-.2-2.64c0-.35-.08-.72-.13-1.08,2.26-.61,3.72-1.18,3.72-1.18l-.26-32.83c1.91-4,2.26-12.77,2.26-19,0-4-.17-7-.17-7l2.61-4.59s.61-5.5-.35-6.71a1.21,1.21,0,0,1,.12-1.57,4.65,4.65,0,0,1,.57-.42l-.06-.11a5.26,5.26,0,0,1,.58-.45s-.93-1.55-.1-2.2c.78.57,1.48,1,2,1.35,0,.36-.07.57-.07.57l.22-.5.83.5s4.09-8.78,4-10.08,2.79-6.75,2.79-6.75.35-2.86,1.92-4.06,1.21-9.9,1.21-9.9.44-4.53,1.48-6.38S214.58,207.64,214.58,207.64Zm-78.36-3.85.08,2.09-.79-1.38Z"/><path class="cls-3" d="M204.35,245.36l-1,4.6s-8-4.42-9.49-10,2.43-7.74,2.43-7.74l7.48,3.42Z"/><path class="cls-4" d="M204.35,245.36l-1,4.6s-8-4.42-9.49-10,2.43-7.74,2.43-7.74l7.48,3.42Z"/><path class="cls-3" d="M159.27,401.91s-7.43,2.94-12.54,3.31c-2.71.2-4.13-1.59-4.87-3.32a10.47,10.47,0,0,1-.76-3l.66-7.93.35-4.22,10.85-3,1.54,5.06.14.38c.62,1.69,3.1,8.57,3,10a2.88,2.88,0,0,0,.76,2A4.53,4.53,0,0,0,159.27,401.91Z"/><path class="cls-3" d="M210,397.88a2.18,2.18,0,0,1-.06.72s-15.89,2.85-19.14,0a8.19,8.19,0,0,0-6.69-2.11s-6.14.18-7.17-2c-.43-.92-.32-2.69,0-4.44a44.84,44.84,0,0,1,1.08-4.86l.24-.21,1.46-1.26,17.13-.55h.13c-.09,3.77,5.81,8.1,5.81,8.1C209,393.77,209.94,396.59,210,397.88Z"/><path class="cls-4" d="M210,397.88a1.94,1.94,0,0,1-.07.72s-15.88,2.85-19.13,0a8.18,8.18,0,0,0-6.68-2.11s-6.15.18-7.18-2a9.35,9.35,0,0,1,0-4.44c2.37.25,6.1.89,7.57,2.4,2.22,2.31,6,4.61,8.29,4.79C194.57,397.36,205.37,397.73,210,397.88Z"/><path class="cls-4" d="M159.27,401.91s-7.43,2.94-12.54,3.31c-2.71.2-4.13-1.59-4.86-3.32,1.89.68,4.51,1.4,5.89.74,1.63-.78,7.43-1.28,10.68-1.5A4,4,0,0,0,159.27,401.91Z"/><path class="cls-5" d="M170.29,165c-6.13-2.56-14-11-12-15a9.61,9.61,0,0,0,.76-3.18,30.73,30.73,0,0,0,.06-4.5,66.62,66.62,0,0,0-.82-7.32s19.13.47,18,3.5a12,12,0,0,0-.29,4.17c.09,1.73.32,3.68.56,5.34.33,2.27.67,4,.67,4s-1.17,1.76-1.86,1.86S179.09,168.65,170.29,165Z"/><path class="cls-4" d="M154.63,389.14l-.14.17c-5.72-7.45-12.64,1.84-12.64,1.84l-.1-.2.35-4.22,10.85-3,1.54,5.06Z"/><path class="cls-4" d="M196.94,383.7s-4.18-.1-6.41,2-13,.46-12.53,0a1.66,1.66,0,0,0,.24-.76l1.46-1.26,17.13-.55C196.89,383.49,196.94,383.7,196.94,383.7Z"/><path class="cls-6" d="M161.75,325.19a15,15,0,0,0-.71,2.57,31.67,31.67,0,0,0-.32,7.28c.17,3.5,0,26.95,0,26.95s-3.67,6.26-5.72,8.46,4.18,6.17,4.18,6.17c.93,5.7-4.7,12.14-4.7,12.14-5.72-7.45-12.64,1.84-12.64,1.84s-3.76-7-4.7-9.5,3.68-4.23,5.3-5.25-.08-7-.08-7-1.37-5.24-3-10,1.8-28.6,1.8-28.6a39.78,39.78,0,0,1,.59-5.71,10.06,10.06,0,0,0,.13-3.24c0-.36-.06-.67-.08-.87s-.05-.3-.05-.3l.07-.12,2.32-4.66S162.86,322.26,161.75,325.19Z"/><path class="cls-6" d="M196.94,383.15s-4.18-.1-6.41,2-13,.46-12.53,0,.43-3.87.43-3.87c-6.32-9.29-.93-13.06-.93-13.06s-2.83-14.62-3.34-20.05c-.35-3.79-.8-14-1-19.79-.1-2.5-.16-4.22-.16-4.22l5.16-1.12.66-.14,12.46-2.69s.34,2.5.57,4.54a23.45,23.45,0,0,1,.2,2.64c-.09,1,0,4.13,0,4.13l.42,9.38a11.15,11.15,0,0,0-.42,3c.08,1.19,1.7,18.3,1.7,18.3s2.82,10.21,1.86,10.95S196.94,383.15,196.94,383.15Z"/><path class="cls-4" d="M176.27,138.49a12,12,0,0,0-.29,4.17,15,15,0,0,1-16.91-.34,66.53,66.53,0,0,0-.82-7.33S177.38,135.45,176.27,138.49Z"/><path class="cls-5" d="M183.66,127.44a18,18,0,0,1-.78,5.31c-2.72,9-11.69,13.88-20,10.95-6.4-2.25-10.79-8.6-10.95-15.85v-.41c-.15-9.45,6.84-17.24,15.61-17.4s16,7.37,16.16,16.82v.58Z"/><path class="cls-4" d="M170.29,165c-6.13-2.56-14-11-12-15a9.61,9.61,0,0,0,.76-3.18l8.39,7.43,5.19,4.58L176.54,148c.33,2.27.67,4,.67,4s-1.17,1.77-1.86,1.86S179.09,168.65,170.29,165Z"/><polygon class="cls-6" points="191.99 197.81 184.98 324.55 175.84 325.2 152.18 251.71 156.06 164.45 156.88 146.01 167.4 155.32 172.6 159.91 176.66 148.77 184.22 155.86 191.99 197.81"/><path class="cls-4" d="M161.75,325.19a15,15,0,0,0-.71,2.57,64,64,0,0,1-19.16-6.45l-.12-.07,0-.8,0-.42,2.33-4.66S162.86,322.26,161.75,325.19Z"/><path class="cls-4" d="M178.24,327.78a44.52,44.52,0,0,1-5.14.63c-.1-2.5-.16-4.22-.16-4.22l5.16-1.12Z"/><path class="cls-4" d="M191.79,324.78c-3.3.92-8.4,2-13,1.31l-.07-3.17,12.46-2.69S191.56,322.71,191.79,324.78Z"/><path class="cls-4" d="M178.75,326.67c-19,3.5-36.48-6.53-36.48-6.53l.17-3.4s.43-38.55-.76-41.5-2.14-17.94-1.46-20.24-2.47-36.79-2.47-36.79l-.51-14-18.7-8.15,8.36-18.76a71.62,71.62,0,0,0,2.91-8.1c1.45-4.87,8.2-9.66,8.2-9.66s6.92-4.78,9.65-4.6,6.32-4.23,6.32-4.23c2.65-7.26,5-4,5-4a7,7,0,0,1-.13,1.07c-.93,8,15,33.18,15.25,33.62h0l1.51,39.83,1.54,50.4Z"/><path class="cls-3" d="M178.24,326.67c-19,3.5-36.48-6.53-36.48-6.53l.17-3.4s.43-38.55-.77-41.5S139,257.3,139.71,255s-2.47-36.79-2.47-36.79l-.52-14L118,196l8.36-18.76a74.31,74.31,0,0,0,2.9-8.1c1.45-4.87,8.2-9.66,8.2-9.66s6.92-4.78,9.65-4.6,6.32-4.23,6.32-4.23c2.65-7.26,5.57-4,5.57-4,0,.34-.28.5-.13,1.07,2.05,7.74,14.51,33.18,14.73,33.62h0l1.54,39.83,1.54,50.4Z"/><path class="cls-4" d="M173.1,182.54c-2-.92-12.89-14.26-12.89-14.26v-3c-.39-1-2.74-.39-4.64.31l.82-18.44.92.83C159.35,155.68,172.87,182.09,173.1,182.54Z"/><path class="cls-3" d="M173.62,181.43c-2.05-.92-12.9-14.25-12.9-14.25v-3c-.39-1-2.74-.39-4.64.31L156.9,146l.93.83C159.87,154.58,173.39,181,173.62,181.43Z"/><path class="cls-4" d="M142.27,247.93c.26,0,13.24-1.47,13.24-1.47s7.86,16.65,7.35,20.7-1.45,7.63-4.61,7-17,.5-17,.5Z"/><path class="cls-3" d="M141.76,246.83c.25,0,13.24-1.47,13.24-1.47s7.85,16.65,7.34,20.69-1.45,7.64-4.61,7-17,.5-17,.5Z"/><path class="cls-5" d="M151.54,239s11.92,6.9,12.17,9-6.06-.92-7.43-1.28a15.89,15.89,0,0,0-2.73-.46l-9.11.26Z"/><ellipse class="cls-4" cx="169.78" cy="182.05" rx="1.25" ry="1.35"/><ellipse class="cls-7" cx="169.78" cy="181.5" rx="1.25" ry="1.35"/><ellipse class="cls-4" cx="172.09" cy="240.48" rx="1.25" ry="1.35"/><ellipse class="cls-7" cx="172.09" cy="239.93" rx="1.25" ry="1.35"/><ellipse class="cls-4" cx="171.03" cy="211.26" rx="1.25" ry="1.35"/><ellipse class="cls-7" cx="171.03" cy="210.71" rx="1.25" ry="1.35"/><path class="cls-3" d="M199.93,246s.85,1.38,0,2,.08,2.21.08,2.21-2.13,1.34-1.19,2.55.34,6.68.34,6.68L196.6,264s.15,2.94.16,6.92c0,6.21-.34,14.94-2.21,18.92l.26,32.66s-9,3.53-16.49,2.45l-1.12-52.4s1.63-29.71,2.23-35.41a64.91,64.91,0,0,0,.43-8.93s-.26-8.92-1.12-13.06c0,0-.93-17.93-1-22.89,0-2.38.07-9.31.2-15.9.15-7.2.31-14,.31-14l-1.69-14.44s1.69-.18,2.2.55a5.4,5.4,0,0,0,.74.62h0c2.93,2.13,13.26,8.68,13.26,8.68s5.73,2.45,7.09,6a54.3,54.3,0,0,0,3,7c.66,1,1,5.7,1,5.7s2,8.65,3.5,10.11S210,197.35,210,197.35l-13.58,11.49S195.24,228,195,228.71,199.93,246,199.93,246Z"/><path class="cls-3" d="M200.44,246s.85,1.38,0,2,.08,2.21.08,2.21-2.12,1.36-1.19,2.57.35,6.67.35,6.67L197.11,264s.16,3,.17,6.93c0,6.21-.34,14.94-2.21,18.92l.25,32.65s-9,3.53-16.49,2.46l-1.11-52.4s1.63-29.72,2.22-35.42a63.23,63.23,0,0,0,.43-8.92s-.26-8.92-1.11-13.06c0,0-.93-17.93-1-22.9,0-2.37.08-9.3.21-15.89.14-7.21.3-14,.3-14l-2.24-14.64s2.24,0,2.76.75a4.37,4.37,0,0,0,.74.61h0c2.92,2.13,13.26,8.68,13.26,8.68s5.72,2.45,7.09,6a52.85,52.85,0,0,0,3,7c.67,1,1,5.7,1,5.7s2,8.65,3.51,10.12,2.64,10.76,2.64,10.76l-13.58,11.5s-1.19,19.13-1.45,19.87S200.44,246,200.44,246Z"/><path class="cls-4" d="M184.18,166.64l1.22,3.85-6.45,7c.14-7.2.31-14,.31-14L177,148.86s2.24,0,2.75.74a4.35,4.35,0,0,0,.75.61h0l5.48,17Z"/><path class="cls-3" d="M183.66,165.54l1.23,3.85-6.45,7c.14-7.21.31-14,.31-14l-2.25-14.64s2.25,0,2.76.75a4.37,4.37,0,0,0,.74.61h0l5.49,17Z"/><path class="cls-4" d="M183.66,127.44a18,18,0,0,1-.78,5.31.62.62,0,0,1-.5-.14c-.12-4.5-2.18-8.72-4.71-12.32a12.64,12.64,0,0,0-2.55-2.85,4.72,4.72,0,0,0-3.46-1c-1.4.2-2.63,1.22-4,1.35-1.86.17-3.52-1.22-5.37-1.29a5.13,5.13,0,0,0-3.94,2,11.8,11.8,0,0,0-2.11,4.22,26.33,26.33,0,0,0-1.18,7.28c0,1.4-.15,3.16-1.36,3.67a7.81,7.81,0,0,0-1.75-5.71l0,0v-.41c-.15-9.45,6.84-17.24,15.61-17.4s16,7.37,16.16,16.82v.58Z"/><path class="cls-8" d="M174.36,100.28a10.16,10.16,0,0,0-7.72-.65c-1.28.41-2.5,1.07-3.8,1.41-2.79.72-6-.06-8.43,1.69a10.86,10.86,0,0,0-2.87,4.12l-1.85,3.81a25.32,25.32,0,0,0-2.46,6.5,8.84,8.84,0,0,0,1.18,6.71c1,1.34,2.44,2.19,3.51,3.45a7.89,7.89,0,0,1,1.74,5.7c1.22-.5,1.33-2.26,1.36-3.66a26.33,26.33,0,0,1,1.18-7.28,11.8,11.8,0,0,1,2.11-4.22,5.17,5.17,0,0,1,3.94-2c1.86.07,3.53,1.45,5.37,1.29,1.39-.13,2.62-1.15,4-1.35a4.72,4.72,0,0,1,3.46,1,12.43,12.43,0,0,1,2.55,2.85c2.53,3.6,4.59,7.81,4.71,12.32.53.42,1.28-.12,1.54-.76a19.22,19.22,0,0,1,.6-2c.38-.71,1.11-1.08,1.68-1.61,1.45-1.35,1.81-3.61,1.76-5.67s-.43-4.14-.07-6.16c.22-1.24.71-2.4,1-3.62a5.06,5.06,0,0,0-.33-3.66c-.93-1.55-2.88-1.85-4.59-2-1.93-.18-3.67.05-4.9-1.7a18.28,18.28,0,0,0-1.95-2.57C176.84,102,174.36,100.39,174.36,100.28Z"/><path class="cls-4" d="M123.89,205.72,119,196.06,117.5,211a74.51,74.51,0,0,1,.69,7.63c-.18,1,3.5,10.12,3.5,10.12s12.13,23.27,17.08,24.47l16.74-12.88-4.44-6.07s-1.53-.65-1.92,0c0,0-8.24-15.27-9.09-16.38a5.83,5.83,0,0,1-.69-3.31s-1.28-1.47-.86-2.85-2.47-6.16-2.47-6.16l2.65-2.66Z"/><path class="cls-3" d="M119.3,195l-1.29,1.1L116.48,211a74.86,74.86,0,0,1,.68,7.63c-.17,1,3.51,10.12,3.51,10.12s12.12,23.27,17.08,24.47l16.74-12.88-4.44-6.07s-1.54-.65-1.92,0c0,0-8.25-15.27-9.1-16.38a5.79,5.79,0,0,1-.68-3.31s-1.28-1.47-.86-2.85-2.48-6.16-2.48-6.16l2.65-2.66Z"/><path class="cls-4" d="M198.82,253.34c.93,1.22.34,6.67.34,6.67l-2.56,4.57s.15,2.95.16,6.93L192.45,273a2.53,2.53,0,0,1-3.2-1.81,2.78,2.78,0,0,1-.12-.91l.75-25.8,10.05,4.14c-.86.64.08,2.21.08,2.21S197.88,252.13,198.82,253.34Z"/><path class="cls-3" d="M199.33,252.79c.93,1.21.35,6.67.35,6.67L197.11,264s.16,3,.17,6.93l-4.39,1.47a2.46,2.46,0,0,1-3.13-1.77,2.7,2.7,0,0,1-.12-.89l.75-25.88L200.45,248c-.86.64.08,2.2.08,2.2S198.4,251.58,199.33,252.79Z"/><path class="cls-5" d="M202.66,240.49s-.68,4.69-2.39,5-2.47,7.59-4.18,7.33-.57-6.8-.51-8.07-1.86-6.53-.43-7.73,6,0,6,0Z"/><path class="cls-4" d="M206.3,204.34l3.22-7a48.58,48.58,0,0,1,1.28,8.18c0,2.85,1.79,3.13,1.79,3.13s2,2.5.93,4.32-1.45,6.35-1.45,6.35.34,8.64-1.2,9.84-1.86,4.05-1.86,4.05-2.82,5.42-2.73,6.71-3.93,10-3.93,10,2-10.86-9.48-15.55c0,0-.09-3.68.77-4.69s2.18-1.47,1.35-6.58-.24-11.2-.24-12.43,2.56-8.86,2.56-8.86Z"/><path class="cls-3" d="M207.69,196.34l2.81,1a48.24,48.24,0,0,1,1.29,8.18c0,2.85,1.79,3.13,1.79,3.13s2,2.5.93,4.32-1.45,6.35-1.45,6.35.34,8.64-1.19,9.84-1.89,4.05-1.89,4.05-2.81,5.42-2.73,6.71-3.93,10-3.93,10,2-10.86-9.48-15.55c0,0-.08-3.68.77-4.69s2.19-1.47,1.35-6.58-.24-11.2-.24-12.43,2.56-8.86,2.56-8.86Z"/><path class="cls-4" d="M145.54,377.77s4.49-3,7.43-.83S145.54,377.77,145.54,377.77Z"/><path class="cls-4" d="M180.39,368.38a8.72,8.72,0,0,1,7.31,3.32C191,375.56,180.39,368.38,180.39,368.38Z"/><g class="cls-9"><path d="M186.2,126.58c-.57.53-1.3.91-1.68,1.62a17.86,17.86,0,0,0-.6,2c-.26.65-1,1.18-1.54.77-.12-4.5-2.18-8.73-4.71-12.33a12.43,12.43,0,0,0-2.55-2.85,4.73,4.73,0,0,0-3.47-1.05c-1.39.2-2.62,1.22-4,1.35-1.86.17-3.53-1.22-5.37-1.29a5.13,5.13,0,0,0-3.94,2,11.76,11.76,0,0,0-2.11,4.21,26.33,26.33,0,0,0-1.18,7.28c0,1.4-.15,3.14-1.35,3.66a6.86,6.86,0,0,1,0,1.11c1.21-.5,1.33-2.26,1.36-3.66a26.27,26.27,0,0,1,1.18-7.28,11.8,11.8,0,0,1,2.11-4.22,5.09,5.09,0,0,1,3.94-2c1.86.07,3.53,1.45,5.37,1.28,1.39-.12,2.62-1.15,4-1.35a4.7,4.7,0,0,1,3.47,1.06,12.43,12.43,0,0,1,2.55,2.85c2.53,3.59,4.59,7.81,4.71,12.32.53.41,1.28-.13,1.54-.77a19.22,19.22,0,0,1,.6-2,7.15,7.15,0,0,1,1.68-1.61c1.45-1.34,1.81-3.61,1.76-5.66v-.19A6.81,6.81,0,0,1,186.2,126.58Z"/><path d="M151.93,126.23c-1.07-1.27-2.53-2.11-3.51-3.45a7.8,7.8,0,0,1-1.35-4.1,8.11,8.11,0,0,0,1.35,5.2c1,1.34,2.44,2.19,3.51,3.45a7.86,7.86,0,0,1,1.75,4.46A7.89,7.89,0,0,0,151.93,126.23Z"/><path d="M188.87,111.13c-.27,1.23-.76,2.39-1,3.63a13,13,0,0,0-.15,2.5,11,11,0,0,1,.15-1.42c.22-1.24.71-2.4,1-3.63a6.83,6.83,0,0,0,.16-2.07A6.59,6.59,0,0,1,188.87,111.13Z"/></g><ellipse class="cls-1" cx="61.88" cy="390.27" rx="45.24" ry="7.82"/><rect class="cls-10" x="60.43" y="240.37" width="2.91" height="70.58"/><path class="cls-7" d="M81.64,310.74l-.18,3.18-.26,4.5-.11,1.87-.26,4.5-.11,1.87-.26,4.5-2.93,51a8.32,8.32,0,0,1-8,8.11H54.26a8.3,8.3,0,0,1-8-8.11l-2.92-51.07-.26-4.5L43,324.76l-.26-4.5-.11-1.87-.26-4.5-.18-3.18A4.39,4.39,0,0,1,46.08,306H77.53a4.34,4.34,0,0,1,4.12,4.51C81.65,310.56,81.64,310.65,81.64,310.74Z"/><polygon class="cls-11" points="81.45 313.92 81.19 318.41 42.57 318.41 42.31 313.92 81.45 313.92"/><polygon class="cls-11" points="81.09 320.28 80.83 324.77 42.94 324.77 42.68 320.28 81.09 320.28"/><polygon class="cls-11" points="80.72 326.64 80.47 331.13 43.31 331.13 43.05 326.64 80.72 326.64"/><path class="cls-6" d="M37.87,266.83c17,13.21,24,33.87,24,33.87s-20.43-.76-37.39-14-24-33.86-24-33.86S20.91,253.62,37.87,266.83Z"/><path class="cls-12" d="M.48,252.87s21.21,12.67,28,23.17S61.9,300.7,61.9,300.7"/><path class="cls-6" d="M48.81,240.22C58,247.4,61.9,258.65,61.9,258.65a39.08,39.08,0,0,1-20.35-7.6c-9.23-7.18-13.08-18.43-13.08-18.43A39.06,39.06,0,0,1,48.81,240.22Z"/><path class="cls-12" d="M28.47,232.62s11.54,6.9,15.24,12.61S61.9,258.65,61.9,258.65"/><path class="cls-6" d="M75.29,258.08C64.69,270.62,62.45,287,62.45,287s15-3.95,25.54-16.5,12.84-28.94,12.84-28.94S85.89,245.53,75.29,258.08Z"/><path class="cls-12" d="M100.84,241.58S87,254.44,83.52,263.3,62.45,287,62.45,287"/><path class="cls-13" d="M464.41,253.66s-7.66-41.07-4.73-46.18c0,0,.11-4.74-.07-10.8V196a14.88,14.88,0,0,0,1.61,1,12.29,12.29,0,0,0,8.78,1.22l-2.32-2.79a4.63,4.63,0,0,1-1.26-2.26,5,5,0,0,1,.5-2.45c2.2-6,2.32-13.55-1.93-18.13-3.59-3.85-4.46-8.82-8.36-12.33-2.84-2.58-4.41-6.35-5.88-10a59.73,59.73,0,0,1-3.23-9.47c-.55-2.55-.78-5.2-1.54-7.69s-2.2-4.92-4.45-6a16.58,16.58,0,0,1-2.41-1.14,11,11,0,0,1-2.22-2.82c-3.52-5-15.29-2-20.86,0a11.29,11.29,0,0,0-4.12,2.46l.05-.09c0-.08.09-.15.14-.23a7.49,7.49,0,0,0-1.56,1.88,45,45,0,0,0-1.83,4.5c-.82,1.77-5.37,6.73-3.41,8.72a1.81,1.81,0,0,0,.46.32,3.74,3.74,0,0,0,2.33.25l-.09.22a15.58,15.58,0,0,0-1,5.54c0,8.22,6.3,14.88,14.06,14.88a13.21,13.21,0,0,0,4.31-.72l.09.57a1.81,1.81,0,0,0,0,.23h0l-.24.37,0-.07-7.29,11c-1.12.85-7.54,5.85-7.9,9.6-.38,4.1-.76,8.91-.76,8.91l-.05,1a2.73,2.73,0,0,1-2.32.67c-2.28-.4-2.28,9-2.28,9s-1.51,1.5-2.55.2-3.79,3.11-3.79,3.11l-17.23.8h0l-.39,0-.93-3.09a1.2,1.2,0,0,0-1.52-.84l-.21.1-.06,0-.12.09-.06.06a.28.28,0,0,0-.09.1l-.06.07,0,0h0a1.34,1.34,0,0,0-.17,1.12l.8,2.65c-3.32.72-6.72,2.75-3.95,8.34l-14.05-2.79,4.55,4.11,23.46,5.21c-.31.6-.1,1.47.87,2.7,4.18,5.28,11.79,6.72,14.86,7.09a28.74,28.74,0,0,0,3,5.5l-.27,5.26s-7.75,40.13-9.18,42.17a23.76,23.76,0,0,0,2-2.79c-2.25,8.25-5.4,19.53-6.23,21.22-1.33,2.7-2.56,13.63-1,14.33a11.86,11.86,0,0,0,3.68-.05v.91L395.8,352s.38,21-.66,23-1.33,6.21-1.33,6.21-4.18,8.3-7.49,11.63l-.07.07-.1-.78s-4,5.41-12.78,5.11c0,0-5.3,3.71,2.55,3.91s17.89-.3,17.89-.3,7-11.5,12.88-10v8.71h1.8v-8.85a8,8,0,0,0,3.19-5.22,6.58,6.58,0,0,0-2.09-5.86,3.89,3.89,0,0,1-1.15-2.74l-.07.06a5,5,0,0,0-.06-.54c-.51-4.5-1.16-13.79,1.12-20.66,3.13-9.42,4.07-22.54,1.8-30.35a75,75,0,0,1-1.81-7.6q-.07-.5-.15-.93a34.41,34.41,0,0,1,4.61,1c5.27,1.57,16.8,1.86,26.64,1.77,0,.29.05.6.09.9a34.75,34.75,0,0,0,1.09,6.26c1.24,4,1.8,21.64,1.8,21.64s1.6,14.5.73,20.4c-.47,3.28-.93,6.57-1.2,9.88v.07s-2.61,8-4.51,12.34l-.15.33a5.88,5.88,0,0,0-1.49.35s-2.56,5.5-5.11,6.41-1.7,3.91,4.07,2.81,14.49-2,14.49-2l.37-5.61,1.78-2.39L452,396.7l1.89-.4-.25-6.8,2.91-3.91s3.5-3.36-1.71-10v.14l-.17-.29v0c-.86-1.44-1.55-4.12-.29-8.89,2.28-8.61,3.6-16.42,3.6-16.42s5.08-20.94-1-30.84h.27a17.58,17.58,0,0,1-1.31-4.4c0-.18-.06-.37-.08-.56a31.48,31.48,0,0,0,12.56-3.06S466.21,261.57,464.41,253.66ZM407.06,219v.1l-.93,0Zm-3.19.48a1.11,1.11,0,0,0-.42.21,4.68,4.68,0,0,0-.73,2.06l-1.45-.35s-1-.24-2.47-.5l-.7-.75C400,220,402,219.74,403.87,219.49Z"/><polygon class="cls-14" points="451.8 389.57 451.25 396.65 453.1 396.25 452.82 388.57 451.8 389.57"/><path class="cls-15" d="M409.53,355.93c-2.23,6.85-1.6,16.09-1.1,20.58.19,1.66.36,2.67.36,2.67s-3.34,8.19-3.62,8.5-9.82,6.59-9.82,6.59l-6.67,4.19s-6.77-3.19-3.53-4.29a4.92,4.92,0,0,0,1.75-1.29c3.25-3.32,7.34-11.59,7.34-11.59s.27-4.19,1.3-6.19.65-23,.65-23l.07-34.17v-4.46l12.7.1a33.72,33.72,0,0,0,.55,4.5,74.47,74.47,0,0,0,1.77,7.58C413.52,333.49,412.59,346.54,409.53,355.93Z"/><path class="cls-4" d="M408.79,379.18s-3.34,8.19-3.62,8.5-9.82,6.59-9.82,6.59l-6.67,4.19s-6.77-3.19-3.53-4.29a4.92,4.92,0,0,0,1.75-1.29l.29,2.19,2.23-.1,19-18.45C408.62,378.17,408.79,379.18,408.79,379.18Z"/><path class="cls-14" d="M408.56,377l-19.14,18.57-2.23.1-.46-3.5s-3.89,5.39-12.54,5.09c0,0-5.19,3.69,2.5,3.89s17.52-.3,17.52-.3,6.86-11.5,12.61-10v8.69h1.76v-8.77a8,8,0,0,0,3.13-5.2,6.63,6.63,0,0,0-2-5.84A3.88,3.88,0,0,1,408.56,377Z"/><path class="cls-15" d="M453.56,366.61c-1.23,4.75-.56,7.42.29,8.86v0a17.11,17.11,0,0,1,2.22,5.83l.07.45-8.71,13.68-4.73,2s-7.6-2.8-6.21-3.6a7.72,7.72,0,0,0,1.52-2.67c1.85-4.32,4.42-12.3,4.42-12.3v-.07c.27-3.29.69-6.58,1.17-9.85.85-5.88-.71-20.33-.71-20.33s-.56-17.56-1.77-21.56a35.19,35.19,0,0,1-1.08-6.22c-.25-2.5-.31-4.56-.31-4.56s5-7.5,14.18.6a10.58,10.58,0,0,1,1.92,2.24c6.34,9.71,1.24,31.1,1.24,31.1S455.79,358,453.56,366.61Z"/><path class="cls-4" d="M456.16,381.78l-8.71,13.68-4.73,2s-7.6-2.8-6.21-3.6a7.76,7.76,0,0,0,1.51-2.67c3.22,0,4.88,3.27,4.88,3.27l4.08-.7s5.38-11.38,6.58-12.07.19-5.2.19-5.2v-1.14l.1.12v0a17.24,17.24,0,0,1,2.22,5.84Z"/><path class="cls-14" d="M443.18,394.76s-2.32-4.59-6.77-2.9c0,0-2.5,5.5-5,6.39s-1.67,3.89,4,2.8,14.18-2,14.18-2l.37-5.6,5.75-7.88s3.42-3.35-1.68-9.93v1.14s1,4.5-.18,5.2-6.57,12.08-6.57,12.08Z"/><path class="cls-4" d="M409,313.6a32.16,32.16,0,0,0,.55,4.5,54.41,54.41,0,0,0-13.27-.14V313.5Z"/><path class="cls-4" d="M456.35,320.39s-7.43.39-16.29.47c-.25-2.5-.31-4.56-.31-4.56s5-7.5,14.18.6a10.58,10.58,0,0,1,1.92,2.24A11.23,11.23,0,0,0,456.35,320.39Z"/><path class="cls-14" d="M456.35,319.49s-32.54,1.69-42.46-1.3-19.75-.4-21.23-1.1-.28-11.58,1-14.27,8.43-29.95,8.43-29.95L409,234.34l7.23-2.15.51-.15,12.59-3.74,9.23-2.75s18.36,77.17,16.78,82.86a15.57,15.57,0,0,0-.26,6.69A17.47,17.47,0,0,0,456.35,319.49Z"/><path class="cls-16" d="M385.06,208s-6.5,7.5-1.58,11.68,8.16.4,8.16.4Z"/><path class="cls-4" d="M385.06,208s-6.5,7.5-1.58,11.68,8.16.4,8.16.4Z"/><path class="cls-15" d="M437.57,158.68l-1.9,1.93c-1.64,1.65-4.06,4-6.2,6.07-3,2.78-5.43,4.83-4.55,3.08s.71-4.78.28-7.63c0-.19-.06-.38-.1-.56a56,56,0,0,0-1.43-6.18,106.51,106.51,0,0,1,7.45-9.32c1-1,1.69-1.41,1.73-.71a24.06,24.06,0,0,0,1.5,5.19l.08.2c.53,1.5,1.14,3,1.68,4.37C436.92,157.16,437.57,158.68,437.57,158.68Z"/><path class="cls-4" d="M434.43,150.75a14.56,14.56,0,0,1-9.23,11.38,54.82,54.82,0,0,0-1.53-6.74s9-12.58,9.18-10A25.11,25.11,0,0,0,434.43,150.75Z"/><path class="cls-4" d="M424.29,165.49l1.18-1.77s.77,5.09,3.62,2.84,3,16.9,3,16.9L429,232.72l-22.11-1.43.63-23.8,2.5-12,6.19-17.44,3.68-5.77Z"/><path class="cls-14" d="M432.08,183.76,429.3,228.3,429,233l-12.32-.79-.47,0-9.28-.6.62-23.81,2.5-12,6.19-17.44,3.69-5.77,4.38-6.81,1.17-1.77s.77,5.09,3.63,2.84l.06,0h0C432,164.9,432.08,183.76,432.08,183.76Z"/><path class="cls-3" d="M410.37,191.62s-1.11,2.5-3.34,2.1-2.23,9-2.23,9-1.48,1.5-2.5.2-3.71,3.09-3.71,3.09l-16.88.8s7.51,3.69,6,14.87c0,0,25.49-1.7,26.33-4.29S410.37,191.62,410.37,191.62Z"/><path class="cls-17" d="M410.37,191.62s-1.11,2.5-3.34,2.1-2.23,9-2.23,9-1.48,1.5-2.5.2-3.71,3.09-3.71,3.09l-16.88.8s7.51,3.69,6,14.87c0,0,25.49-1.7,26.33-4.29S410.37,191.62,410.37,191.62Z"/><polygon class="cls-3" points="361.33 212.69 365.78 216.78 402.39 225.06 397.85 220.07 361.33 212.69"/><path class="cls-3" d="M424.36,167.07a109.93,109.93,0,0,0-3.8,10.59c-1.21,3.72-2.22,7-2.22,7s-2.37,16.57-3.57,19.56-.56,14.67-.56,14.67l-4.49,28.85s-2,14.87-5.19,23.76-6.57,12.84-6.67,13c1.39-2,9-42,9-42l2.51-50.4s.37-4.79.74-8.89S418,173.5,418,173.5l7.25-11.11C426,163.44,425.47,165.27,424.36,167.07Z"/><path class="cls-15" d="M405.45,231.85s-10.68-.5-15.85-7.19,12-2.67,12-2.67l4.45,1.1Z"/><path class="cls-4" d="M455.32,308.41a15.62,15.62,0,0,0-.26,6.7c-11.65.89-24.12-2.5-24.12-2.5-2.32,2.3-8.43,5.69-8.43,5.69l-3.34-44.5c-2.13-6-3-37.44-3-37.44s.19-1.64.46-4.11a.55.55,0,0,1,0-.18c.84-6.89,2.48-19.81,3.29-21.56,1.12-2.4-3.43-8.78-3.43-8.78l2.07-19,.25-2.29c4.36-2.1,7.7-8.79,7.7-8.79l2.56-4.83h0c2.78-1.93,2.93,16.94,2.93,16.94l-2.79,44.54,9.23-2.75S456.9,302.72,455.32,308.41Z"/><path class="cls-3" d="M467.28,311.49c-12.7,6.79-35.78.5-35.78.5-2.32,2.3-8.44,5.69-8.44,5.69l-3.33-44.5c-2.13-6-3-37.44-3-37.44s2.69-23.45,3.8-25.85a4.07,4.07,0,0,0-.22-2.86,38.77,38.77,0,0,1-2-16.74l.89-8.15.25-2.29c4.36-2.1,7.7-8.79,7.7-8.79l2.32-4.38,4.27-8.07,2-3.82.35.34,2.62,2.56,2.79,2.5c3.63,3.3,9.91,9.11,13.15,12.66,2.86,3.13,3.76,15.31,4,24.47.17,6,.07,10.76.07,10.76-2.88,5.1,4.64,46,4.64,46C465.15,262,467.28,311.49,467.28,311.49Z"/><path class="cls-17" d="M442.9,171s-8.71,17.87-7.7,24.66,3.89,14.47,2.5,16.26a5,5,0,0,1-4.08,2.2c-1.39.1-5.1,2.89-5.1,3.19s-3.44.3-6.5,1.7a38.36,38.36,0,0,1-7.61,2.2s-8.82-.3-9.64.6-1.67,6.28.09,10.58,3.72,7.5,5.19,8.08,10.85-2.79,18.45-3.59,15.85-7.29,15.85-7.29,9.09-3.5,10.68-9.38-1.94-38.23-1.94-38.23S450.41,166.87,442.9,171Z"/><path class="cls-17" d="M441.79,169.46s-8.72,17.87-7.69,24.66,3.89,14.47,2.49,16.27a5,5,0,0,1-4.07,2.19c-1.4.1-5.11,2.9-5.11,3.2s-3.43.3-6.5,1.69a38.34,38.34,0,0,1-7.6,2.2s-8.82-.3-9.64.6-1.67,6.29.09,10.58,3.72,7.5,5.19,8.08,10.85-2.79,18.45-3.59,15.85-7.29,15.85-7.29,9.08-3.5,10.66-9.38-2-38.23-2-38.23S449.3,165.37,441.79,169.46Z"/><path class="cls-3" d="M442.63,170.06s-8.71,17.87-7.69,24.66,3.89,14.47,2.5,16.26a5,5,0,0,1-4.08,2.2c-1.39.1-5.11,2.9-5.11,3.19s-3.43.3-6.5,1.7a38.34,38.34,0,0,1-7.6,2.2s-8.82-.3-9.64.6-1.67,6.29.09,10.58,3.71,7.5,5.19,8.08,10.85-2.79,18.45-3.59,15.85-7.29,15.85-7.29,9.08-3.5,10.68-9.38S452.85,181,452.85,181,450.13,166,442.63,170.06Z"/><path class="cls-4" d="M442.44,218s-7-1.5-4.54,1,2.41,4.69,5.38,4.59S442.44,218,442.44,218Z"/><path class="cls-4" d="M454.21,271.78s-3.15,2.29,2.87,7.58S454.21,271.78,454.21,271.78Z"/><path class="cls-4" d="M448.2,290.64c0,.3-1.11,11,3.06,13.68S448.2,290.64,448.2,290.64Z"/><path class="cls-15" d="M382,206.78c-3.36.13-10.62,1.23-6.86,8.8,3.33,6.69,8.93,2.22,12.08-1.18A12.79,12.79,0,0,0,382,206.78Z"/><path class="cls-15" d="M387.26,214.34l.14-.15Z"/><path class="cls-4" d="M441.52,160.49c-3.57,2.63-6.56,4.84-7.14,5.3-1.6,1.28-4.65,8.76-6.61,12.58-1.57,3.08-6.65,3.87-8.57,4.06l.25-2.28c4.36-2.1,7.7-8.79,7.7-8.79l8.61-16.27,3,2.9Z"/><path class="cls-18" d="M441.52,160.19c-3.57,2.63-6.56,4.84-7.14,5.31-1.6,1.27-4.65,8.75-6.61,12.57-1.57,3.08-6.65,3.87-8.57,4.06l.25-2.28c4.36-2.1,7.7-8.79,7.7-8.79l8.61-16.27,3,2.89Z"/><path class="cls-15" d="M434.65,147.45a15.58,15.58,0,0,1-2.42,8.41c-4.31,6.74-12.88,8.45-19.15,3.81s-7.85-13.87-3.55-20.62,12.89-8.46,19.15-3.82A15.18,15.18,0,0,1,434.65,147.45Z"/><path class="cls-4" d="M458.69,197.33a12.85,12.85,0,0,1-4.45-5.14c-.77-1.65-1.29-3.56-2.61-4.73s-2.79-1.3-4.27-1.77a13.3,13.3,0,0,1-9.14-11.84c-.07-2.58.68-5.15.34-7.71a8.87,8.87,0,0,0-1.55-4,13.42,13.42,0,0,0-1.34-1.56c-.65-.66-1.34-1.3-1.93-2a7.79,7.79,0,0,1-1-1.42,7,7,0,0,1-.53-1.33c-.93-3.06-.08-6.69-1.11-9.78l-.05-.17c-.39-1.1-1.17-2.2-2.26-2.29s-2,.89-3.07,1.33c-2.17.91-4.52-.64-6.34-2.22s-3.86-3.39-6.17-3c-1.53.24-2.73,1.36-4.14,1.94a5.82,5.82,0,0,1-1,.3c2.83-7.6,10.84-11.29,17.9-8.24a14.85,14.85,0,0,1,8.64,13.77,15.27,15.27,0,0,1-.3,3.09l.08.21c.53,1.5,1.14,3,1.68,4.37l2.62,2.56,2.79,2.5c3.63,3.3,9.91,9.11,13.15,12.66C457.53,176,458.42,188.16,458.69,197.33Z"/><path class="cls-19" d="M408.93,132.49c.66-1.45,1-3.08,1.78-4.46A10,10,0,0,1,416,124c5.46-2,17-5,20.43,0a10.68,10.68,0,0,0,2.18,2.8,15.6,15.6,0,0,0,2.36,1.15c2.2,1.11,3.6,3.53,4.35,6s1,5.12,1.52,7.66A59.76,59.76,0,0,0,450,151c1.45,3.63,3,7.39,5.77,10,3.8,3.5,4.64,8.45,8.17,12.29,4.18,4.56,4,12.09,1.89,18.06a5.11,5.11,0,0,0-.49,2.44,4.76,4.76,0,0,0,1.23,2.26l2.28,2.78c-5.4,1.4-11.52-1.64-14-7-.77-1.65-1.29-3.55-2.61-4.73s-2.79-1.3-4.27-1.77a13.27,13.27,0,0,1-9.13-11.84c-.08-2.58.67-5.15.33-7.7a8.73,8.73,0,0,0-1.56-4c-1.27-1.8-3.2-3-4.24-5-1.76-3.35-.42-7.69-1.69-11.28-.39-1.1-1.17-2.2-2.26-2.29s-2,.89-3.07,1.33c-2.17.91-4.52-.64-6.34-2.22s-3.86-3.39-6.17-3c-1.53.23-2.73,1.35-4.14,1.93-1,.43-3.15.82-4.06-.13C403.67,139.21,408.12,134.27,408.93,132.49Z"/><path class="cls-4" d="M456.1,190.19c-.78-1.65-1.3-3.55-2.62-4.72s-2.79-1.31-4.27-1.78a13.3,13.3,0,0,1-9.14-11.84c-.07-2.57.68-5.15.34-7.7a8.91,8.91,0,0,0-1.55-4c-1.29-1.79-3.21-3-4.25-5-1.76-3.34-.42-7.68-1.69-11.28-.39-1.09-1.17-2.19-2.26-2.28s-2,.89-3.07,1.33c-2.17.91-4.53-.64-6.34-2.22s-3.86-3.39-6.17-3c-1.53.24-2.74,1.36-4.14,1.94-1,.43-3.15.82-4.06-.13-1.91-2,2.54-6.92,3.34-8.69.66-1.46,1-3.09,1.79-4.47l.13-.22a7.69,7.69,0,0,0-1.52,1.87c-.8,1.38-1.13,3-1.79,4.46-.8,1.77-5.26,6.71-3.34,8.7.93,1,3,.56,4.06.13,1.39-.59,2.61-1.71,4.14-1.94,2.32-.35,4.36,1.45,6.17,3s4.18,3.13,6.34,2.22c1-.43,1.95-1.41,3.07-1.32s1.85,1.18,2.26,2.28c1.27,3.59-.07,7.94,1.69,11.28,1,2,3,3.2,4.24,5a8.89,8.89,0,0,1,1.56,4c.34,2.55-.41,5.13-.34,7.7a13.29,13.29,0,0,0,9.14,11.85c1.47.47,3.08.72,4.26,1.77,1.34,1.17,1.86,3.07,2.62,4.72,2.52,5.34,8.63,8.38,14,7l-1.08-1.31A12.85,12.85,0,0,1,456.1,190.19Z"/><path class="cls-4" d="M424.09,167.37A106.39,106.39,0,0,0,420.28,178c-1.36-.57-2.59-4.21-2.59-4.21l7.25-11.11C425.68,163.74,425.2,165.57,424.09,167.37Z"/><path class="cls-18" d="M424.36,167.07a109.93,109.93,0,0,0-3.8,10.59c-1.36-.57-2.59-4.21-2.59-4.21l7.25-11.1C426,163.44,425.47,165.27,424.36,167.07Z"/><path class="cls-20" d="M382.2,218.14l-4-13.65a1.29,1.29,0,0,1,.76-1.6h0a1.17,1.17,0,0,1,1.48.83l4,13.63-.4,2.86Z"/><path class="cls-21" d="M378.56,203.29h0a1.18,1.18,0,0,1,1.49.83l4,13.64-.3,2.14.29.33.4-2.86-4-13.63a1.17,1.17,0,0,0-1.48-.83h0a1.16,1.16,0,0,0-.62.5A1.15,1.15,0,0,1,378.56,203.29Z"/><polygon class="cls-22" points="382.2 218.15 384.45 217.38 384.12 219.72 384.05 220.23 383.39 219.49 382.2 218.15"/><path class="cls-23" d="M383.39,219.49a.47.47,0,0,1,.15-.13.18.18,0,0,1,.22,0l.08.13a.37.37,0,0,0,.28.21l-.07.5Z"/><path class="cls-15" d="M378.15,209.34s8.07-.05,6.17,3.64-4.87,4.14-4.87,4.14Z"/><path class="cls-6" d="M328,43.52h-.35c-13.85,0-26.1,7.89-33.15,19.54-7.05-11.65-19.3-19.54-33.16-19.54H261c-21.64.22-39.07,19.17-39.09,42.47,0,13.91,5.66,33.64,16.69,49.87,21,30.94,55.91,58,55.91,58s34.9-27.06,55.91-58c11-16.23,16.68-36,16.68-49.87C367.07,62.69,349.63,43.74,328,43.52Zm-5,94.72a7.84,7.84,0,0,1-7.27-5.41h-8.29a2.63,2.63,0,0,1-2.46-1.92l-2.55-8.25L294.39,153a2.65,2.65,0,0,1-2.5,2h-.16a2.65,2.65,0,0,1-2.41-2.32L281,98.92,275,130.72a2.64,2.64,0,0,1-2.52,2.11H260.78a2.68,2.68,0,0,1-2.71-2.67,2.71,2.71,0,0,1,2.49-2.91.81.81,0,0,1,.22,0h9.62L279,84.49a2.6,2.6,0,0,1,3.14-2.07,2.72,2.72,0,0,1,2,2.3l8.47,54.82,7.22-27.1a2.56,2.56,0,0,1,2.42-2h.06a2.62,2.62,0,0,1,2.46,1.92l4.6,14.9h6.3a7.68,7.68,0,0,1,9.83-5.34,8.54,8.54,0,0,1,5,10.58,7.85,7.85,0,0,1-7.4,5.76Z"/></svg>