<svg id="Layer_1" data-name="Layer 1" xmlns="http://www.w3.org/2000/svg" viewBox="0 0 418.16 301.14"><defs><style>.cls-1{font-size:62px;font-family:ArialRoundedMTBold, Arial Rounded MT Bold;}.cls-1,.cls-2{fill:#df0a21;}</style></defs><title>SplashScreen</title><text class="cls-1" transform="translate(101.18 62.79)">Health+</text><path class="cls-2" d="M253.78,83.91h-.37c-16.87,0-31.69,9.29-40.31,22.93-8.5-13.64-23.43-22.93-40.31-22.93h-.36c-26.23.24-47.48,22.58-47.48,50,0,16.34,6.92,39.5,20.28,58.66,25.5,36.33,67.87,68.18,67.87,68.18s42.38-31.85,67.87-68.18c13.36-19,20.28-42.32,20.28-58.66C301.25,106.49,280,84.15,253.78,83.91Zm.32,102.41a9.2,9.2,0,0,1-9,6.82,9.67,9.67,0,0,1-8.86-6.35H226.18a3.36,3.36,0,0,1-3-2.23l-3-9.76-9.84,35.62a3.08,3.08,0,0,1-3,2.35H207a3.17,3.17,0,0,1-2.91-2.7l-10-63.13-7.4,37.38a3.19,3.19,0,0,1-3,2.47h-14.2a3.21,3.21,0,0,1-3.28-3.17,3.29,3.29,0,0,1,3-3.41h11.9l10.44-50.32a3.17,3.17,0,0,1,3.77-2.46,3.53,3.53,0,0,1,2.43,2.7l10.32,64.42,8.74-31.86a3.05,3.05,0,0,1,2.91-2.35h.12a3.35,3.35,0,0,1,3,2.24l5.59,17.51h7.64a9.24,9.24,0,0,1,11.9-6.23A10,10,0,0,1,254.1,186.32Z"/></svg>