<svg id="Layer_1" data-name="Layer 1" xmlns="http://www.w3.org/2000/svg" viewBox="0 0 105.11 88.74"><defs><style>.cls-1{font-size:24.94px;fill:#e95033;font-family:ArialRoundedMTBold, Arial Rounded MT Bold;}.cls-2{fill:#df0a20;}</style></defs><title>SplashScreen2</title><text class="cls-1" transform="translate(4.47 24.73) scale(1.01 1)">Health+</text><path class="cls-2" d="M64.77,28.23h-.12a16.06,16.06,0,0,0-13.54,7.84,16,16,0,0,0-13.54-7.84h-.12c-8.81.08-16,7.72-16,17.1,0,5.59,2.33,13.52,6.81,20.07,8.57,12.44,22.8,23.34,22.8,23.34S65.34,77.84,73.9,65.4c4.49-6.51,6.81-14.48,6.81-20.07C80.71,36,73.58,28.31,64.77,28.23Zm.11,35.05a3.11,3.11,0,0,1-3,2.33,3.28,3.28,0,0,1-3-2.17H55.5a1.12,1.12,0,0,1-1-.77l-1-3.34-3.3,12.19a1,1,0,0,1-1,.81h-.08a1.07,1.07,0,0,1-1-.93L44.73,49.8,42.25,62.59a1.08,1.08,0,0,1-1,.85H36.46a1.09,1.09,0,0,1-1.1-1.09,1.11,1.11,0,0,1,1-1.17h4L43.88,44a1.06,1.06,0,0,1,1.26-.85,1.19,1.19,0,0,1,.82.93l3.46,22,2.94-10.9a1,1,0,0,1,1-.8h0a1.12,1.12,0,0,1,1,.76l1.87,6h2.57a3.1,3.1,0,0,1,4-2.13A3.45,3.45,0,0,1,64.88,63.28Z"/></svg>